<?xml version="1.0" encoding="utf-8"?>
<!-- Generator: Adobe Illustrator 25.1.0, SVG Export Plug-In . SVG Version: 6.00 Build 0)  -->
<svg version="1.1" id="Layer_1" xmlns="http://www.w3.org/2000/svg" xmlns:xlink="http://www.w3.org/1999/xlink" x="0px" y="0px"
	 viewBox="0 0 300 300" style="enable-background:new 0 0 300 300;" xml:space="preserve">
<style type="text/css">
	.st0{fill:#1C3459;}
</style>
<path id="reply-all-solid" class="st0" d="M63.6,101.66l53.99-48.6V52.9c-0.01-8.95-7.28-16.19-16.22-16.18
	c-3.97,0.01-7.79,1.46-10.75,4.1L9.68,113.7c-6.65,5.98-7.19,16.22-1.21,22.87c0.38,0.42,0.78,0.83,1.21,1.21l80.93,72.83
	c4.74,4.29,11.57,5.35,17.4,2.72c5.79-2.63,9.53-8.39,9.57-14.75v-0.15L63.6,149.81c-13.3-11.97-14.37-32.45-2.4-45.75
	C61.95,103.22,62.75,102.42,63.6,101.66z M182.36,52.9c0.01-8.95-7.24-16.21-16.19-16.21c-3.99,0-7.85,1.47-10.82,4.13L74.42,113.7
	c-6.65,5.98-7.19,16.22-1.21,22.87c0.38,0.42,0.78,0.83,1.21,1.21l80.93,72.83c4.74,4.29,11.57,5.35,17.4,2.72
	c5.82-2.62,9.57-8.39,9.61-14.77V166.2h16.18c26.82,0.01,48.56,21.75,48.56,48.58c0,0.01,0,0.01,0,0.02
	c0.51,10.72-3.57,21.15-11.23,28.68c-2.94,2.47-4.73,6.04-4.96,9.87c0,5.5,4.46,9.97,9.97,9.97c1.42,0.01,2.83-0.32,4.1-0.96
	c31.8-17.78,51.27-51.58,50.68-88.01c0-49.17-39.86-89.03-89.03-89.03h0h-24.28V52.9z"/>
</svg>
