<?xml version="1.0" encoding="utf-8"?>
<!-- Generator: Adobe Illustrator 25.1.0, SVG Export Plug-In . SVG Version: 6.00 Build 0)  -->
<svg version="1.1" id="Layer_1" xmlns="http://www.w3.org/2000/svg" xmlns:xlink="http://www.w3.org/1999/xlink" x="0px" y="0px"
	 viewBox="0 0 300 300" style="enable-background:new 0 0 300 300;" xml:space="preserve">
<style type="text/css">
	.st0{fill:#1C3459;}
</style>
<path id="rectangle-list-solid" class="st0" d="M0,66.67c0.01-18.41,14.93-33.32,33.34-33.34h233.33
	c18.41,0.01,33.32,14.93,33.34,33.34v166.67c-0.01,18.41-14.93,33.32-33.34,33.34H33.34C14.93,266.66,0.01,251.74,0,233.33V66.67z
	 M66.67,166.66c9.21,0,16.67-7.46,16.67-16.67s-7.46-16.67-16.67-16.67c-9.21,0-16.67,7.46-16.67,16.67l0,0
	c-0.01,9.19,7.43,16.65,16.62,16.67C66.64,166.66,66.66,166.66,66.67,166.66z M83.34,99.99c0-9.21-7.46-16.67-16.67-16.67
	S50,90.78,50,99.99c0,9.21,7.46,16.67,16.67,16.67c0,0,0,0,0,0c9.19,0.01,16.65-7.44,16.66-16.63c0-0.01,0-0.02,0-0.02L83.34,99.99z
	 M66.67,216.67c9.21,0,16.67-7.46,16.67-16.67s-7.46-16.67-16.67-16.67C57.47,183.33,50,190.79,50,200l0,0
	c-0.01,9.19,7.43,16.65,16.62,16.67C66.64,216.67,66.66,216.67,66.67,216.67z M116.66,87.5c-6.9-0.21-12.67,5.21-12.89,12.11
	c-0.21,6.9,5.21,12.67,12.11,12.89c0.26,0.01,0.52,0.01,0.77,0h116.66c6.9,0.21,12.67-5.21,12.89-12.11
	c0.21-6.9-5.21-12.67-12.11-12.89c-0.26-0.01-0.52-0.01-0.77,0H116.66z M116.66,137.5c-6.9,0.21-12.32,5.98-12.11,12.89
	c0.2,6.6,5.51,11.91,12.11,12.11h116.66c6.9-0.21,12.32-5.98,12.11-12.89c-0.2-6.6-5.51-11.91-12.11-12.11H116.66z M116.66,187.51
	c-6.9-0.21-12.67,5.21-12.89,12.11c-0.21,6.9,5.21,12.67,12.11,12.89c0.26,0.01,0.52,0.01,0.77,0h116.66
	c6.9,0.21,12.67-5.21,12.89-12.11c0.21-6.9-5.21-12.67-12.11-12.89c-0.26-0.01-0.52-0.01-0.77,0H116.66z"/>
</svg>
