<?xml version="1.0" encoding="utf-8"?>
<!-- Generator: Adobe Illustrator 25.1.0, SVG Export Plug-In . SVG Version: 6.00 Build 0)  -->
<svg version="1.1" id="Layer_1" xmlns="http://www.w3.org/2000/svg" xmlns:xlink="http://www.w3.org/1999/xlink" x="0px" y="0px"
	 viewBox="0 0 300 300" style="enable-background:new 0 0 300 300;" xml:space="preserve">
<style type="text/css">
	.st0{fill:#1C3459;}
</style>
<path id="users-solid" class="st0" d="M69.32,106c-20.25,0-36.67-16.42-36.67-36.67s16.42-36.67,36.67-36.67
	c20.25,0,36.67,16.42,36.67,36.67C106,89.57,89.59,105.99,69.34,106C69.34,106,69.33,106,69.32,106z M238.01,106
	c-20.25,0-36.67-16.42-36.67-36.67s16.42-36.67,36.67-36.67c20.25,0,36.67,16.42,36.67,36.67c0.01,20.25-16.4,36.66-36.65,36.67
	C238.02,106,238.01,106,238.01,106z M3.32,169.57c0.01-27.01,21.9-48.9,48.91-48.91H71.8c7.06,0,14.03,1.52,20.45,4.45
	c-0.59,3.37-0.89,6.8-0.87,10.22c0,16.84,7.22,32.87,19.85,44.01H13.08C7.69,179.32,3.33,174.96,3.32,169.57z M189.1,179.33h-0.32
	c12.64-11.13,19.87-27.16,19.85-44c-0.01-3.43-0.3-6.84-0.87-10.22c6.41-2.95,13.39-4.47,20.45-4.45h19.57
	c27.01,0.01,48.9,21.9,48.91,48.91c-0.01,5.39-4.37,9.76-9.76,9.76H189.1z M194,135.33c0,24.31-19.7,44.01-44.01,44.01
	s-44.01-19.7-44.01-44.01s19.7-44.01,44.01-44.01c0,0,0.01,0,0.01,0C174.3,91.33,194,111.03,194,135.33L194,135.33z M61.99,255.14
	c0.01-33.74,27.36-61.1,61.1-61.1h53.81c33.74,0.01,61.1,27.36,61.1,61.1c0,6.74-5.46,12.2-12.2,12.2H74.23
	c-6.74,0.02-12.22-5.43-12.24-12.17C61.99,255.16,61.99,255.15,61.99,255.14z"/>
</svg>
