<?xml version="1.0" encoding="utf-8"?>
<!-- Generator: Adobe Illustrator 25.1.0, SVG Export Plug-In . SVG Version: 6.00 Build 0)  -->
<svg version="1.1" id="Layer_1" xmlns="http://www.w3.org/2000/svg" xmlns:xlink="http://www.w3.org/1999/xlink" x="0px" y="0px"
	 viewBox="0 0 300 300" style="enable-background:new 0 0 300 300;" xml:space="preserve">
<style type="text/css">
	.st0{fill:#1C3459;}
</style>
<path id="comments-solid" class="st0" d="M99.24,193.5c52.06,0,94.24-35.71,94.24-79.74s-42.18-79.74-94.24-79.74S5,69.71,5,113.75
	c0.15,17.27,6.52,33.9,17.95,46.85c-1.55,4.04-3.72,7.81-6.43,11.19c-1.82,2.33-3.83,4.51-6.02,6.5c-0.82,0.72-1.49,1.32-1.95,1.68
	c-0.16,0.13-0.32,0.25-0.5,0.36l-0.09,0.09l0,0c-2.51,1.85-3.55,5.1-2.58,8.06c0.99,2.97,3.75,4.99,6.89,5.03
	c9.64-0.22,19.16-2.13,28.13-5.66c3.92-1.48,7.75-3.21,11.46-5.17C66.6,189.88,82.82,193.58,99.24,193.5z M207.98,113.75
	c0,50.88-44.9,89.21-98.09,93.78c11.01,33.71,47.53,58.46,90.84,58.46c16.45,0.08,32.69-3.63,47.47-10.84
	c3.69,1.96,7.5,3.69,11.41,5.17c8.97,3.53,18.5,5.44,28.13,5.66c4.01-0.01,7.26-3.27,7.25-7.28c-0.01-2.32-1.12-4.49-2.99-5.86l0,0
	l-0.09-0.09c-0.09-0.09-0.27-0.19-0.5-0.36c-0.45-0.36-1.13-0.93-1.95-1.68c-2.19-1.99-4.2-4.16-6.02-6.5
	c-2.71-3.37-4.9-7.14-6.48-11.17c11.45-12.94,17.82-29.58,17.96-46.86c0-42.04-38.47-76.52-87.22-79.51
	c0.19,2.31,0.27,4.64,0.27,7.02L207.98,113.75z"/>
</svg>
