<?xml version="1.0" encoding="utf-8"?>
<!-- Generator: Adobe Illustrator 25.1.0, SVG Export Plug-In . SVG Version: 6.00 Build 0)  -->
<svg version="1.1" id="Layer_1" xmlns="http://www.w3.org/2000/svg" xmlns:xlink="http://www.w3.org/1999/xlink" x="0px" y="0px"
	 viewBox="0 0 300 300" style="enable-background:new 0 0 300 300;" xml:space="preserve">
<style type="text/css">
	.st0{fill:#1C3459;}
</style>
<path id="square-facebook" class="st0" d="M265.32,3.22H34.68c-17.37,0-31.45,14.08-31.45,31.45c0,0,0,0,0,0v230.65
	c0,17.37,14.08,31.45,31.45,31.45c0,0,0,0,0,0h89.93v-99.81H83.33V150h41.27v-35.8c0-40.73,24.25-63.22,61.38-63.22
	c12.19,0.17,24.35,1.23,36.39,3.17v39.97h-20.55c-12.86-1.67-24.64,7.4-26.32,20.26c-0.22,1.7-0.26,3.41-0.1,5.12V150h45.05
	l-7.21,46.97h-37.85v99.81h89.93c17.37,0,31.45-14.08,31.45-31.45v0V34.68C296.78,17.31,282.69,3.22,265.32,3.22
	C265.32,3.22,265.32,3.22,265.32,3.22z"/>
</svg>
