<?xml version="1.0" encoding="utf-8"?>
<!-- Generator: Adobe Illustrator 25.1.0, SVG Export Plug-In . SVG Version: 6.00 Build 0)  -->
<svg version="1.1" id="Layer_1" xmlns="http://www.w3.org/2000/svg" xmlns:xlink="http://www.w3.org/1999/xlink" x="0px" y="0px"
	 viewBox="0 0 300 300" style="enable-background:new 0 0 300 300;" xml:space="preserve">
<style type="text/css">
	.st0{fill:#1C3459;}
</style>
<path id="square-instagram" class="st0" d="M150,115.05c-19.3,0.01-34.94,15.66-34.93,34.96c0.01,19.3,15.66,34.94,34.96,34.93
	c19.3-0.01,34.93-15.65,34.93-34.95c0-19.3-15.65-34.95-34.95-34.95C150.01,115.05,150,115.05,150,115.05z M231.71,88.19
	c-3.6-9.12-10.81-16.34-19.93-19.93c-20.31-4.15-41.09-5.57-61.78-4.21c-20.69-1.38-41.48,0.04-61.79,4.21
	c-9.12,3.6-16.34,10.81-19.93,19.93c-4.15,20.32-5.57,41.11-4.21,61.81c-1.36,20.7,0.07,41.5,4.24,61.82
	c3.6,9.12,10.81,16.34,19.93,19.93c20.32,4.15,41.1,5.57,61.79,4.21c20.69,1.38,41.48-0.04,61.79-4.21
	c9.12-3.6,16.34-10.81,19.93-19.93c4.17-20.33,5.58-41.12,4.2-61.82c1.37-20.7-0.04-41.49-4.21-61.81L231.71,88.19z M150,203.74
	c-29.64-0.04-53.63-24.09-53.59-53.73c0.04-29.64,24.09-53.63,53.73-53.59c29.64,0.04,53.63,24.09,53.59,53.73
	c-0.02,14.21-5.67,27.83-15.71,37.87C177.93,198.09,164.26,203.75,150,203.74z M205.95,106.55c-6.89-0.04-12.44-5.66-12.4-12.55
	c0.04-6.89,5.66-12.44,12.55-12.4c6.89,0.04,12.44,5.66,12.4,12.55c-0.02,3.28-1.33,6.43-3.65,8.75
	C212.49,105.25,209.28,106.57,205.95,106.55z M265.32,3.22H34.68c-17.37,0-31.45,14.08-31.45,31.45c0,0,0,0,0,0v230.65
	c0,17.37,14.08,31.45,31.45,31.45c0,0,0,0,0,0h230.65c17.37,0,31.45-14.08,31.45-31.45l0,0V34.68
	C296.78,17.31,282.69,3.22,265.32,3.22C265.32,3.22,265.32,3.22,265.32,3.22z M254.11,193.24c0.3,16.28-5.77,32.04-16.94,43.9
	c-11.86,11.16-27.62,17.24-43.9,16.94c-17.31,0.98-69.19,0.98-86.5,0c-16.28,0.29-32.03-5.79-43.9-16.94
	c-11.18-11.85-17.26-27.61-16.94-43.9c-0.98-17.31-0.98-69.21,0-86.5c-0.33-16.29,5.76-32.05,16.94-43.9
	c11.87-11.14,27.63-17.2,43.9-16.89c17.31-0.98,69.19-0.98,86.5,0c16.28-0.3,32.04,5.78,43.9,16.94
	c11.17,11.87,17.25,27.64,16.94,43.93C255.08,124.08,255.08,175.92,254.11,193.24z"/>
</svg>
