<?xml version="1.0" encoding="utf-8"?>
<!-- Generator: Adobe Illustrator 25.1.0, SVG Export Plug-In . SVG Version: 6.00 Build 0)  -->
<svg version="1.1" id="Layer_1" xmlns="http://www.w3.org/2000/svg" xmlns:xlink="http://www.w3.org/1999/xlink" x="0px" y="0px"
	 viewBox="0 0 300 300" style="enable-background:new 0 0 300 300;" xml:space="preserve">
<style type="text/css">
	.st0{fill:#1C3459;}
</style>
<path id="bell-solid" class="st0" d="M150,3.27c-10.12-0.01-18.33,8.18-18.35,18.3c0,0.02,0,0.03,0,0.05v11
	c-42.7,8.73-73.36,46.29-73.37,89.87v10.78c-0.03,26.94-9.92,52.93-27.8,73.08l-4.24,4.75c-6.72,7.58-6.03,19.18,1.55,25.9
	c3.35,2.97,7.67,4.61,12.14,4.62h220.1c10.13-0.02,18.33-8.24,18.32-18.38c-0.01-4.48-1.65-8.8-4.62-12.14l-4.24-4.75
	c-17.9-20.16-27.79-46.17-27.8-73.13v-10.78c-0.03-43.56-30.7-81.1-73.38-89.82v-11c0.01-10.12-8.18-18.33-18.3-18.35
	C150.02,3.27,150.01,3.27,150,3.27z M175.97,286.01c6.88-6.89,10.73-16.23,10.72-25.97h-73.37c0.02,20.28,16.47,36.7,36.75,36.69
	C159.78,296.73,169.09,292.87,175.97,286.01z"/>
</svg>
