<?xml version="1.0" encoding="utf-8"?>
<!-- Generator: Adobe Illustrator 25.1.0, SVG Export Plug-In . SVG Version: 6.00 Build 0)  -->
<svg version="1.1" id="Layer_1" xmlns="http://www.w3.org/2000/svg" xmlns:xlink="http://www.w3.org/1999/xlink" x="0px" y="0px"
	 viewBox="0 0 100 100" style="enable-background:new 0 0 100 100;" xml:space="preserve">
<style type="text/css">
	.st0{fill:url(#Path_1946_1_);}
	.st1{fill:none;stroke:#1C3459;}
	.st2{fill:url(#Path_1949_1_);}
	.st3{fill:url(#Path_1950_1_);}
	.st4{fill:url(#Path_1951_1_);}
	.st5{fill:url(#Path_1952_1_);}
	.st6{fill:url(#Path_1953_1_);}
	.st7{fill:url(#Path_1954_1_);}
	.st8{fill:url(#Path_1955_1_);}
	.st9{fill:url(#Path_1956_1_);}
	.st10{fill:url(#Path_1957_1_);}
	.st11{fill:url(#Path_1959_1_);}
	.st12{fill:url(#Path_1961_1_);}
	.st13{fill:url(#Path_1962_1_);}
</style>
<g id="Group_5575" transform="translate(0.728 0.508)">
	
		<linearGradient id="Path_1946_1_" gradientUnits="userSpaceOnUse" x1="-859.1427" y1="507.6746" x2="-857.1328" y2="507.6746" gradientTransform="matrix(6.962 0 0 -3.5 5995.4937 1820.293)">
		<stop  offset="0" style="stop-color:#E7E7E8"/>
		<stop  offset="1" style="stop-color:#BCBDBF"/>
	</linearGradient>
	<path id="Path_1946" class="st0" d="M14.14,39.91h3.36l5.52,3.3l5.11,3.74L14.14,39.91z"/>
	<g id="Group_5096" transform="translate(0 0)">
		<path id="Path_1947" class="st1" d="M28.13,46.95V76.3H0.14l13.99-36.38L28.13,46.95z"/>
		<path id="Path_1948" class="st1" d="M70.41,46.95V76.3H98.4l-14-36.38L70.41,46.95z"/>
		
			<linearGradient id="Path_1949_1_" gradientUnits="userSpaceOnUse" x1="-616.2575" y1="569.627" x2="-614.2475" y2="569.627" gradientTransform="matrix(1.224 0 0 -14.596 782.4312 8375.8965)">
			<stop  offset="0" style="stop-color:#1C3459"/>
			<stop  offset="1" style="stop-color:#1C3459"/>
		</linearGradient>
		<path id="Path_1949" class="st2" d="M28.13,76.29l2.46-3.86V47.49l-2.46-0.54V76.29z"/>
		
			<linearGradient id="Path_1950_1_" gradientUnits="userSpaceOnUse" x1="-633.2326" y1="569.627" x2="-631.2226" y2="569.627" gradientTransform="matrix(1.371 0 0 -14.596 935.7993 8375.8965)">
			<stop  offset="0" style="stop-color:#1C3459"/>
			<stop  offset="1" style="stop-color:#1C3459"/>
		</linearGradient>
		<path id="Path_1950" class="st3" d="M70.41,76.29l-2.76-3.58V47.63l2.76-0.68V76.29z"/>
		
			<linearGradient id="Path_1951_1_" gradientUnits="userSpaceOnUse" x1="-855.0968" y1="507.6511" x2="-853.0868" y2="507.6511" gradientTransform="matrix(6.964 0 0 -3.499 6025.2939 1819.6984)">
			<stop  offset="0" style="stop-color:#1C3459"/>
			<stop  offset="1" style="stop-color:#1C3459"/>
		</linearGradient>
		<path id="Path_1951" class="st4" d="M84.41,39.91h-3.04l-4.32,2.14l-6.63,4.89L84.41,39.91z"/>
		
			<linearGradient id="Path_1952_1_" gradientUnits="userSpaceOnUse" x1="-841.9664" y1="509.0222" x2="-839.9564" y2="509.0222" gradientTransform="matrix(5.212 0 0 -3.551 4404.4585 1849.7981)">
			<stop  offset="0" style="stop-color:#FFFFFF"/>
			<stop  offset="1" style="stop-color:#FFFFFF"/>
		</linearGradient>
		<path id="Path_1952" class="st5" d="M16.84,38.69l-0.71,1.63l10.48,5.5L16.84,38.69z"/>
		
			<linearGradient id="Path_1953_1_" gradientUnits="userSpaceOnUse" x1="-825.9927" y1="494.6826" x2="-823.9827" y2="494.6826" gradientTransform="matrix(4.558 0 0 -3.016 3837.6841 1534.1007)">
			<stop  offset="0" style="stop-color:#FFFFFF"/>
			<stop  offset="1" style="stop-color:#FFFFFF"/>
		</linearGradient>
		<path id="Path_1953" class="st6" d="M81.1,39.1l0.88,1.17l-9.16,4.89L81.1,39.1z"/>
		
			<linearGradient id="Path_1954_1_" gradientUnits="userSpaceOnUse" x1="-452.7333" y1="568.4348" x2="-450.7234" y2="568.4348" gradientTransform="matrix(0.787 0 0 -13.776 385.3064 7891.8242)">
			<stop  offset="0" style="stop-color:#FFFFFF"/>
			<stop  offset="1" style="stop-color:#FFFFFF"/>
		</linearGradient>
		<path id="Path_1954" class="st7" d="M29.01,47.22l1.58,27.69h-1.58V47.22z"/>
		
			<linearGradient id="Path_1955_1_" gradientUnits="userSpaceOnUse" x1="-547.5378" y1="568.4348" x2="-545.5278" y2="568.4348" gradientTransform="matrix(0.993 0 0 -13.776 572.7036 7891.8242)">
			<stop  offset="0" style="stop-color:#FFFFFF"/>
			<stop  offset="1" style="stop-color:#FFFFFF"/>
		</linearGradient>
		<path id="Path_1955" class="st8" d="M30.59,74.91L31,74.27l-1.64-27.05h-0.35L30.59,74.91z"/>
		
			<linearGradient id="Path_1956_1_" gradientUnits="userSpaceOnUse" x1="-490.7873" y1="568.4348" x2="-488.7773" y2="568.4348" gradientTransform="matrix(0.787 0 0 -13.776 404.5684 7891.8242)">
			<stop  offset="0" style="stop-color:#FFFFFF"/>
			<stop  offset="1" style="stop-color:#FFFFFF"/>
		</linearGradient>
		<path id="Path_1956" class="st9" d="M69.31,47.22l-1.58,27.69h1.58V47.22z"/>
		
			<linearGradient id="Path_1957_1_" gradientUnits="userSpaceOnUse" x1="-577.5272" y1="568.4348" x2="-575.5172" y2="568.4348" gradientTransform="matrix(0.993 0 0 -13.776 591.8161 7891.8242)">
			<stop  offset="0" style="stop-color:#FFFFFF"/>
			<stop  offset="1" style="stop-color:#FFFFFF"/>
		</linearGradient>
		<path id="Path_1957" class="st10" d="M67.73,74.91l-0.41-0.64l1.64-27.05h0.35L67.73,74.91z"/>
		<path id="Path_1958" class="st1" d="M28.13,46.95L5.72,30.59l43.56-7.9l43.08,8.06l-21.94,16.2l-21.14-3.08L28.13,46.95z"/>
		
			<linearGradient id="Path_1959_1_" gradientUnits="userSpaceOnUse" x1="-892.6546" y1="435.2973" x2="-890.6446" y2="435.2973" gradientTransform="matrix(21.039 0 0 -1.87 18808.6934 859.7592)">
			<stop  offset="0" style="stop-color:#1C3459"/>
			<stop  offset="1" style="stop-color:#1C3459"/>
		</linearGradient>
		<path id="Path_1959" class="st11" d="M28.13,46.95l2.46,0.54l18.44-2.34l18.62,2.48l2.77-0.68l-21.14-3.08L28.13,46.95z"/>
		<g id="Group_5094" transform="translate(4.504 14.432)">
			<path id="Path_1960" class="st1" d="M6.11,37.26l-1.42,3.32l14.23,5.23L6.11,37.26z"/>
			
				<linearGradient id="Path_1961_1_" gradientUnits="userSpaceOnUse" x1="-488.2969" y1="398.3553" x2="-486.2869" y2="398.3553" gradientTransform="matrix(0.821 0 0 -1.654 405.5837 697.7955)">
				<stop  offset="0" style="stop-color:#1C3459"/>
				<stop  offset="1" style="stop-color:#1C3459"/>
			</linearGradient>
			<path id="Path_1961" class="st12" d="M4.69,40.58l0.47-0.2l1.18-2.97l-0.23-0.15L4.69,40.58z"/>
			
				<linearGradient id="Path_1962_1_" gradientUnits="userSpaceOnUse" x1="-864.8334" y1="465.9845" x2="-862.8234" y2="465.9845" gradientTransform="matrix(7.079 0 0 -2.694 6126.8438 1298.4423)">
				<stop  offset="0" style="stop-color:#1C3459"/>
				<stop  offset="1" style="stop-color:#1C3459"/>
			</linearGradient>
			<path id="Path_1962" class="st13" d="M5.17,40.39l13.75,5.41L4.69,40.58L5.17,40.39z"/>
		</g>
		<g id="Group_5095" transform="translate(37.183 14.432)">
			<path id="Path_1963" class="st1" d="M50.5,37.26l1.42,3.32L37.7,45.81L50.5,37.26z"/>
			<path id="Path_1964" class="st1" d="M51.93,40.58l-0.47-0.2l-1.18-2.97l0.23-0.15L51.93,40.58z"/>
			<path id="Path_1965" class="st1" d="M51.45,40.39L37.7,45.8l14.23-5.23L51.45,40.39z"/>
		</g>
	</g>
	<g id="Group_5097" transform="translate(19.966 0.546)">
		<path id="Path_1966" class="st1" d="M29.31,23.24L27.27,37.7l-6.96-4.32l9,9V23.24z"/>
		<path id="Path_1967" class="st1" d="M29.31,23.24l2.03,14.46l6.96-4.32l-9,9V23.24z"/>
		<path id="Path_1968" class="st1" d="M20.31,33.38l7.07,4.68l-0.11-0.36L20.31,33.38z"/>
		<path id="Path_1969" class="st1" d="M27.38,38.05l1.93-14.82L27.27,37.7L27.38,38.05z"/>
		<path id="Path_1970" class="st1" d="M29.31,23.24l1.87,14.82l0.16-0.36L29.31,23.24z"/>
		<path id="Path_1971" class="st1" d="M31.18,38.05l7.12-4.68l-6.96,4.32L31.18,38.05z"/>
	</g>
</g>
</svg>
