<?xml version="1.0" encoding="utf-8"?>
<!-- Generator: Adobe Illustrator 25.1.0, SVG Export Plug-In . SVG Version: 6.00 Build 0)  -->
<svg version="1.1" id="Layer_1" xmlns="http://www.w3.org/2000/svg" xmlns:xlink="http://www.w3.org/1999/xlink" x="0px" y="0px"
	 viewBox="0 0 100 100" style="enable-background:new 0 0 100 100;" xml:space="preserve">
<style type="text/css">
	.st0{fill:none;stroke:#1C3459;stroke-width:0.5;}
</style>
<g id="Group_5576" transform="translate(-464.476 -1349.873)">
	<path id="Path_1972" class="st0" d="M491.02,1364.22l0.2,1.67c0.17,0.6,0.78,0.97,1.39,0.82h0.07l-0.4-3.41c0-0.1,0-0.2,0-0.3
		c-0.12-2.48,1.79-4.59,4.28-4.72s4.59,1.79,4.72,4.28c0.01,0.15,0.01,0.29,0,0.44c0,0.1,0,0.2,0,0.31l-0.36,3.12l-1.3,1.78
		c-0.23-0.09-0.5-0.03-0.66,0.16l-1.13,1.36c-0.17,0.27-0.09,0.62,0.18,0.79c0.22,0.14,0.52,0.11,0.7-0.07l1.13-1.36
		c0.14-0.17,0.17-0.41,0.07-0.61l1.28-1.76c0.54,0.04,1.02-0.31,1.15-0.83l0.2-1.67c0-0.5-0.34-0.93-0.83-1.05c0-0.06,0-0.12,0-0.19
		c0.13-2.72-1.97-5.02-4.69-5.15c-2.72-0.13-5.02,1.97-5.15,4.69c-0.01,0.15-0.01,0.31,0,0.46c0,0.06,0,0.12,0,0.19
		C491.38,1363.27,491.02,1363.71,491.02,1364.22z"/>
	<path id="Path_1973" class="st0" d="M498.79,1368.25c0.17-0.21,0.45-0.31,0.71-0.26c0.33-0.43,0.58-0.91,0.74-1.43
		c0.41-1.76,0.46-3.58,0.12-5.35c-0.08-0.33-0.34-0.57-0.67-0.62c-0.53-0.75-1.37-1.22-2.29-1.27c-2.91-0.47-3.42,1.19-3.42,1.19
		l0,0c0,0-0.59-0.14-0.89,0.71c-0.43,1.79-0.35,3.66,0.22,5.41c0.49,1.53,1.86,2.61,3.46,2.72c0.45,0,0.89-0.09,1.31-0.27
		L498.79,1368.25z"/>
	<path id="Path_1974" class="st0" d="M488.69,1389.19h2.47l1.51,16h8.44l1.51-16h2.47l2.69-8.33h-6l-0.51-2.29
		c0.14-0.12,0.21-0.32,0.16-0.5l-0.39-1.46c-0.07-0.26-0.34-0.41-0.6-0.34c-0.26,0.07-0.41,0.34-0.34,0.6l0.39,1.46
		c0.05,0.19,0.21,0.33,0.4,0.36l0.44,2.18h-8.85l0.43-2.18c0.19-0.03,0.35-0.17,0.4-0.36l0.39-1.46c0.07-0.26-0.09-0.52-0.35-0.59
		c0,0-0.01,0-0.01,0c-0.04-0.01-0.09-0.01-0.13,0h-0.04h-0.07c-0.03,0.01-0.07,0.02-0.1,0.04l-0.06,0.03
		c-0.03,0.02-0.06,0.05-0.09,0.08l-0.04,0.04c-0.04,0.05-0.06,0.1-0.08,0.16l-0.4,1.46c-0.05,0.18,0.01,0.38,0.16,0.5l-0.2,0.9l0,0
		l-0.3,1.39h-6.01L488.69,1389.19z"/>
	<rect id="Rectangle_1223" x="490.2" y="1406.05" class="st0" width="13.37" height="4.78"/>
	<path id="Path_1975" class="st0" d="M487.67,1379.49l4.38-0.02l0.18-0.83c-0.14-0.18-0.18-0.42-0.12-0.64l0.4-1.46
		c0.06-0.41,0.44-0.69,0.85-0.63c0.41,0.06,0.69,0.44,0.63,0.85c-0.01,0.06-0.03,0.12-0.05,0.18l-0.4,1.45
		c-0.06,0.22-0.22,0.4-0.42,0.49l-0.12,0.59h3.77h4l-0.12-0.59c-0.21-0.09-0.37-0.27-0.43-0.49l-0.39-1.45
		c-0.11-0.4,0.12-0.81,0.52-0.92c0,0,0,0,0,0c0.06-0.02,0.13-0.03,0.2-0.03c0.33,0,0.62,0.23,0.71,0.55l0.39,1.46
		c0.06,0.22,0.01,0.46-0.12,0.64l0.18,0.83c2.75,0,4.15,0.02,4.15,0.02s-1-6.39-1.32-7.18l-4.53-1.63l-1.84,6.29l-0.88-4.48
		l0.81-1.81h-2.71l0.81,1.81l-0.88,4.48l-1.84-6.29l-4.53,1.63C488.67,1373.1,487.67,1379.49,487.67,1379.49z"/>
	<path id="Path_1976" class="st0" d="M527.83,1364.22l0.2,1.67c0.13,0.52,0.62,0.88,1.15,0.83l1.28,1.76
		c-0.1,0.2-0.07,0.44,0.07,0.61l1.14,1.36c0.23,0.22,0.59,0.22,0.81-0.01c0.18-0.19,0.21-0.48,0.07-0.7l-1.13-1.36
		c-0.16-0.19-0.43-0.26-0.66-0.16l-1.3-1.78l-0.36-3.12c0-0.11,0-0.21,0-0.31c-0.12-2.48,1.79-4.59,4.28-4.71
		c2.48-0.12,4.59,1.8,4.71,4.28c0.01,0.15,0.01,0.29,0,0.44c0,0.1,0,0.2,0,0.3l-0.4,3.41h0.07c0.61,0.15,1.22-0.22,1.39-0.82
		l0.19-1.67c0-0.5-0.34-0.93-0.83-1.05c0-0.06,0-0.12,0-0.19c0.1-2.72-2.01-5-4.73-5.11c-2.72-0.1-5,2.01-5.11,4.73
		c0,0.13,0,0.25,0,0.38c0,0.06,0,0.12,0,0.19C528.19,1363.28,527.84,1363.72,527.83,1364.22z"/>
	<path id="Path_1977" class="st0" d="M536.38,1360.5L536.38,1360.5c0,0-0.51-1.66-3.42-1.19c-0.92,0.04-1.76,0.51-2.29,1.27
		c-0.33,0.05-0.6,0.3-0.67,0.62c-0.33,1.77-0.29,3.6,0.13,5.35c0.16,0.52,0.41,1,0.74,1.43c0.04,0,0.08,0,0.13,0
		c0.23,0,0.44,0.1,0.59,0.27l0.71,0.84c0.41,0.18,0.86,0.27,1.31,0.27c1.6-0.11,2.97-1.19,3.46-2.72c0.57-1.75,0.65-3.62,0.22-5.41
		C536.96,1360.37,536.38,1360.5,536.38,1360.5z"/>
	<path id="Path_1978" class="st0" d="M525.27,1389.19h2.47l1.51,16h8.44l1.51-16h2.47l2.69-8.33h-6.02l-0.3-1.39l0,0l-0.2-0.9
		c0.15-0.12,0.21-0.32,0.16-0.5l-0.4-1.46c-0.02-0.06-0.04-0.11-0.08-0.16c-0.01-0.02-0.03-0.03-0.04-0.04
		c-0.02-0.03-0.05-0.05-0.08-0.07l-0.06-0.03c-0.03-0.01-0.06-0.02-0.1-0.03h-0.07h-0.04c-0.04-0.01-0.09-0.01-0.13,0
		c-0.26,0.06-0.42,0.33-0.36,0.59c0,0,0,0,0,0l0.4,1.46c0.05,0.19,0.21,0.33,0.4,0.36l0.43,2.18h-8.85l0.44-2.18
		c0.19-0.03,0.35-0.17,0.4-0.36l0.4-1.46c0.07-0.26-0.08-0.53-0.34-0.6c-0.26-0.07-0.53,0.08-0.6,0.34l0,0l-0.39,1.46
		c-0.05,0.18,0.01,0.38,0.16,0.5l-0.51,2.29h-6L525.27,1389.19z"/>
	<path id="Path_1980" class="st0" d="M502.66,1404.19h25.04l-0.17-1.78h-24.7L502.66,1404.19z"/>
	<rect id="Rectangle_1224" x="526.78" y="1406.05" class="st0" width="13.37" height="4.78"/>
	<path id="Path_1981" class="st0" d="M524.47,1379.49c0,0,1.41,0,4.15-0.02l0.18-0.83c-0.14-0.18-0.18-0.42-0.13-0.64l0.39-1.46
		c0.09-0.32,0.38-0.55,0.71-0.55c0.07,0,0.13,0.01,0.2,0.02c0.4,0.11,0.63,0.52,0.52,0.92l-0.39,1.45c-0.06,0.22-0.22,0.4-0.43,0.49
		l-0.12,0.59h4h3.78l-0.12-0.59c-0.21-0.09-0.37-0.27-0.42-0.49l-0.4-1.45c-0.11-0.4,0.13-0.81,0.52-0.92
		c0.06-0.02,0.13-0.03,0.19-0.03c0.33,0,0.62,0.23,0.71,0.55l0.4,1.46c0.06,0.22,0.01,0.46-0.13,0.64l0.19,0.83l4.38,0.03
		c0,0-1-6.39-1.32-7.18l-4.53-1.63l-1.84,6.29l-0.87-4.48l0.82-1.81h-2.71l0.81,1.81l-0.87,4.48l-1.84-6.29l-4.53,1.63
		C525.48,1373.1,524.47,1379.49,524.47,1379.49z"/>
	<path id="Path_1982" class="st0" d="M480.14,1418.76c0.21,0.69,0.54,1.2,1,1.17c0.53,1.58,1.46,2.68,3,2.68c1.53,0,2.46-1.1,3-2.68
		c0.46,0.03,0.79-0.48,1-1.17c0.32-1.07-0.03-1.43-0.49-1.56v-0.03l0,0c0.11-0.78,0.08-1.57-0.1-2.34c-0.07-0.32-0.33-0.56-0.65-0.6
		c-0.55-0.73-1.38-1.2-2.29-1.3c-3.12-0.71-3.16,1.23-3.16,1.23l0,0c-0.37-0.08-0.74,0.15-0.83,0.52c-0.01,0.06-0.02,0.11-0.02,0.17
		c-0.06,0.77-0.06,1.55,0,2.32l0,0c0,0.01,0,0.02,0,0.03C480.17,1417.33,479.82,1417.7,480.14,1418.76z"/>
	<path id="Path_1983" class="st0" d="M500.13,1418.48c0.21,0.69,0.54,1.2,1,1.17c0.53,1.58,1.47,2.68,3,2.68c1.53,0,2.47-1.1,3-2.69
		c0.46,0.03,0.79-0.47,1.01-1.17c0.32-1.07-0.03-1.43-0.5-1.56c0-0.01,0-0.02,0-0.03l0,0c0.11-0.78,0.07-1.57-0.1-2.34
		c-0.07-0.32-0.33-0.56-0.65-0.6c-0.55-0.73-1.38-1.2-2.29-1.31c-3.12-0.71-3.16,1.23-3.16,1.23l0,0l0,0l0,0
		c-0.37-0.08-0.74,0.15-0.83,0.53c-0.01,0.05-0.02,0.11-0.02,0.16c-0.05,0.77-0.05,1.55,0,2.32l0,0v0.03
		C500.16,1417.05,499.8,1417.42,500.13,1418.48z"/>
	<path id="Path_1984" class="st0" d="M520.14,1418.58c0.21,0.69,0.54,1.19,1.01,1.16c0.53,1.59,1.47,2.68,2.99,2.68
		c1.53,0,2.47-1.09,3-2.69c0.46,0.03,0.79-0.47,1-1.16c0.33-1.07-0.02-1.43-0.49-1.57v-0.03l0,0c0.11-0.78,0.07-1.58-0.1-2.35
		c-0.07-0.32-0.33-0.55-0.65-0.6c-0.55-0.73-1.38-1.2-2.29-1.3c-3.12-0.71-3.16,1.23-3.16,1.23l0,0c-0.39-0.07-0.76,0.18-0.83,0.57
		c-0.01,0.04-0.01,0.08-0.01,0.12c-0.06,0.77-0.06,1.55,0,2.33l0,0c0,0.01,0,0.02,0,0.03
		C520.16,1417.13,519.81,1417.52,520.14,1418.58z"/>
	<path id="Path_1985" class="st0" d="M539.75,1418.67c0.21,0.69,0.54,1.2,1,1.17c0.54,1.59,1.47,2.68,3,2.68c1.53,0,2.46-1.1,3-2.69
		c0.46,0.03,0.79-0.47,1-1.16c0.33-1.07-0.02-1.43-0.49-1.56c0-0.01,0-0.02,0-0.03l0,0c0.11-0.78,0.08-1.57-0.09-2.34
		c-0.07-0.31-0.33-0.55-0.65-0.6c-0.55-0.73-1.38-1.2-2.3-1.3c-3.12-0.71-3.16,1.23-3.16,1.23l0,0l0,0
		c-0.37-0.08-0.74,0.15-0.83,0.53c-0.01,0.05-0.02,0.11-0.02,0.17c-0.06,0.77-0.06,1.55,0,2.32l0,0v0.03
		C539.77,1417.24,539.42,1417.61,539.75,1418.67z"/>
	<path id="Path_1986" class="st0" d="M470,1425.42c0.21,0.69,0.54,1.2,1,1.17c0.54,1.59,1.47,2.68,3,2.68s2.47-1.1,3-2.68
		c0.46,0.03,0.79-0.47,1-1.17c0.33-1.07-0.03-1.43-0.49-1.56v-0.03l0,0c0.11-0.78,0.08-1.57-0.1-2.34
		c-0.07-0.31-0.33-0.55-0.65-0.59c-0.55-0.73-1.38-1.21-2.29-1.3c-3.12-0.71-3.15,1.23-3.15,1.23c-0.37-0.08-0.74,0.15-0.83,0.52
		c-0.01,0.05-0.02,0.11-0.02,0.17c-0.05,0.77-0.05,1.55,0,2.32l0,0c0,0.01,0,0.02,0,0.03C470.03,1423.99,469.67,1424.36,470,1425.42
		z"/>
	<path id="Path_1987" class="st0" d="M490.14,1425.41c0.21,0.69,0.54,1.2,1,1.17c0.54,1.58,1.47,2.68,3,2.68c1.53,0,2.46-1.1,3-2.69
		c0.46,0.03,0.79-0.47,1.01-1.17c0.32-1.07-0.03-1.43-0.49-1.56c0-0.01,0-0.02,0-0.03l0,0c0.11-0.78,0.08-1.57-0.1-2.34
		c-0.07-0.32-0.33-0.56-0.65-0.6c-0.55-0.73-1.38-1.2-2.29-1.31c-3.12-0.71-3.16,1.23-3.16,1.23c-0.37-0.08-0.74,0.15-0.83,0.53
		c-0.01,0.05-0.02,0.11-0.02,0.16c-0.06,0.77-0.06,1.55,0,2.32l0,0v0.03C490.17,1423.98,489.82,1424.35,490.14,1425.41z"/>
	<path id="Path_1988" class="st0" d="M510.21,1425.42c0.21,0.69,0.54,1.19,1.01,1.17c0.53,1.59,1.47,2.68,2.99,2.68
		c1.52,0,2.47-1.09,3-2.68c0.46,0.03,0.79-0.47,1-1.16c0.32-1.07-0.02-1.43-0.49-1.57v-0.03l0,0c0.11-0.78,0.08-1.57-0.09-2.34
		c-0.07-0.31-0.33-0.55-0.65-0.59c-0.55-0.73-1.38-1.2-2.29-1.31c-3.12-0.71-3.16,1.23-3.16,1.23c-0.39-0.07-0.76,0.19-0.83,0.57
		c-0.01,0.04-0.01,0.08-0.01,0.12c-0.06,0.77-0.06,1.55,0,2.32l0,0c0,0.01,0,0.02,0,0.03
		C510.24,1423.98,509.89,1424.36,510.21,1425.42z"/>
	<path id="Path_1989" class="st0" d="M534.63,1429.26c1.53,0,2.46-1.09,3-2.68c0.46,0.03,0.79-0.47,1.01-1.16
		c0.32-1.07-0.03-1.43-0.49-1.57c0-0.01,0-0.02,0-0.03l0,0c0.11-0.78,0.08-1.57-0.09-2.34c-0.07-0.31-0.33-0.55-0.64-0.59
		c-0.55-0.73-1.38-1.2-2.3-1.31c-3.12-0.71-3.16,1.23-3.16,1.23c-0.37-0.08-0.74,0.15-0.83,0.53c-0.01,0.05-0.02,0.11-0.02,0.17
		c-0.06,0.77-0.06,1.55,0,2.32l0,0v0.03c-0.47,0.13-0.82,0.51-0.49,1.57c0.21,0.69,0.54,1.19,1,1.17
		C532.17,1428.17,533.11,1429.26,534.63,1429.26z"/>
	<path id="Path_1990" class="st0" d="M465.64,1439.01c2.3,1.96,5.24,2.99,8.26,2.9c3.08,0.06,6.08-0.97,8.47-2.9
		c0,0-0.92-5.87-1.21-6.59c-2.26-0.95-4.69-1.46-7.14-1.5c-2.47-0.15-4.94,0.37-7.14,1.5
		C466.56,1433.14,465.64,1439.01,465.64,1439.01z"/>
	<path id="Path_1991" class="st0" d="M550.92,1425.16c0.21,0.69,0.54,1.2,1,1.16c0.54,1.59,1.47,2.69,3,2.69c1.53,0,2.46-1.1,3-2.68
		c0.46,0.03,0.79-0.48,1-1.17c0.33-1.07-0.02-1.43-0.49-1.57v-0.03l0,0c0.05-0.77,0.05-1.55,0-2.32c0.01-0.38-0.3-0.7-0.68-0.71
		c-0.06,0-0.11,0-0.17,0.02c0,0-0.04-1.96-3.16-1.23c-0.91,0.1-1.74,0.57-2.29,1.3c-0.32,0.04-0.58,0.28-0.65,0.6
		c-0.17,0.77-0.2,1.56-0.1,2.34l0,0v0.03C550.94,1423.72,550.59,1424.1,550.92,1425.16z"/>
	<path id="Path_1992" class="st0" d="M554.93,1430.66c-2.45,0.04-4.88,0.55-7.14,1.5c-0.29,0.71-1.22,6.59-1.22,6.59
		c2.4,1.93,5.4,2.96,8.47,2.9c3.02,0.1,5.96-0.94,8.26-2.9c0,0-0.92-5.87-1.21-6.59C559.88,1431.03,557.41,1430.51,554.93,1430.66z"
		/>
	<path id="Path_1993" class="st0" d="M501.29,1432.42c-2.26-0.95-4.69-1.46-7.14-1.5c-2.47-0.15-4.94,0.36-7.14,1.5
		c-0.29,0.71-1.22,6.59-1.22,6.59c2.3,1.96,5.24,2.99,8.26,2.89c3.08,0.06,6.08-0.96,8.47-2.89
		C502.53,1439.01,501.59,1433.14,501.29,1432.42z"/>
	<path id="Path_1994" class="st0" d="M522.58,1439.01c0,0-0.92-5.87-1.22-6.59c-2.26-0.95-4.69-1.46-7.14-1.5
		c-2.47-0.15-4.94,0.37-7.14,1.5c-0.29,0.71-1.21,6.59-1.21,6.59c2.3,1.96,5.24,2.99,8.26,2.9
		C517.2,1441.96,520.19,1440.93,522.58,1439.01z"/>
	<path id="Path_1995" class="st0" d="M534.63,1430.92c-2.47-0.15-4.94,0.37-7.14,1.5c-0.3,0.71-1.22,6.59-1.22,6.59
		c2.3,1.96,5.24,2.99,8.25,2.9c3.08,0.06,6.08-0.97,8.48-2.9c0,0-0.92-5.87-1.21-6.59C539.53,1431.46,537.1,1430.95,534.63,1430.92z
		"/>
	<path id="Path_1996" class="st0" d="M478.15,1427.77c-0.3,0.72-0.75,1.37-1.32,1.91c1.71,0.25,3.37,0.71,4.96,1.4l0.53,0.25
		l0.22,0.54c0.26,0.87,0.45,1.76,0.59,2.65c0.29,0.02,0.59,0.03,0.9,0.03s0.66,0,0.97-0.04c0.14-0.9,0.34-1.78,0.6-2.66l0.18-0.44
		l0.4-0.26c1.56-0.85,3.27-1.38,5.03-1.56c-0.52-0.52-0.94-1.14-1.23-1.82c-0.65-0.46-1.1-1.14-1.29-1.91
		c-0.18-0.54-0.23-1.13-0.13-1.69c-1.45-0.36-2.94-0.56-4.43-0.59c-1.55-0.04-3.09,0.13-4.59,0.51c0.12,0.59,0.08,1.21-0.11,1.78
		C479.25,1426.64,478.8,1427.31,478.15,1427.77z"/>
	<path id="Path_1997" class="st0" d="M505.86,1431.39l0.41-0.25c1.56-0.85,3.27-1.38,5.03-1.56c-0.52-0.52-0.94-1.14-1.22-1.82
		c-0.65-0.46-1.11-1.14-1.29-1.91c-0.22-0.63-0.24-1.3-0.07-1.94c-1.5-0.39-3.03-0.59-4.58-0.62c-1.53-0.04-3.06,0.13-4.54,0.5
		c0.24,0.67,0.24,1.4,0,2.07c-0.18,0.77-0.64,1.45-1.29,1.9c-0.3,0.72-0.75,1.37-1.31,1.9c1.71,0.25,3.37,0.72,4.96,1.4l0.53,0.25
		l0.22,0.54c0.24,0.78,0.42,1.57,0.54,2.38c0.26,0,0.52,0.03,0.8,0.03c0.39,0,0.75-0.02,1.11-0.05c0.13-0.8,0.31-1.59,0.54-2.36
		L505.86,1431.39z"/>
	<path id="Path_1998" class="st0" d="M526.1,1431.83l0.18-0.44l0.4-0.25c1.56-0.85,3.27-1.39,5.03-1.57
		c-0.52-0.52-0.94-1.14-1.23-1.82c-0.65-0.46-1.1-1.14-1.29-1.91c-0.19-0.56-0.23-1.17-0.12-1.75c-1.61-0.44-3.27-0.68-4.94-0.71
		c-1.5-0.04-2.99,0.12-4.45,0.47c0.2,0.65,0.19,1.36-0.04,2c-0.18,0.77-0.64,1.45-1.29,1.91c-0.3,0.72-0.75,1.37-1.31,1.9
		c1.71,0.24,3.37,0.71,4.95,1.4l0.53,0.25l0.22,0.54c0.24,0.82,0.43,1.65,0.56,2.5c0.24,0,0.47,0.03,0.71,0.03
		c0.51,0,1.01-0.03,1.51-0.09C525.67,1433.45,525.86,1432.63,526.1,1431.83z"/>
	<path id="Path_1999" class="st0" d="M547.13,1430.8c1.49-0.64,3.04-1.09,4.64-1.34l-0.08-0.45c-0.38-0.45-0.7-0.96-0.93-1.51
		c-0.65-0.46-1.1-1.14-1.29-1.91c-0.13-0.39-0.19-0.8-0.19-1.22c-1.8-0.56-3.67-0.86-5.55-0.9c-1.23-0.03-2.46,0.07-3.67,0.3
		c0.24,0.67,0.24,1.41,0,2.08c-0.18,0.77-0.64,1.45-1.29,1.9c-0.3,0.72-0.75,1.37-1.31,1.9c1.71,0.25,3.37,0.72,4.95,1.4l0.53,0.25
		l0.22,0.54c0.25,0.85,0.45,1.72,0.59,2.6c0.68-0.01,1.35-0.06,2.02-0.16c0.14-0.91,0.34-1.81,0.6-2.69l0.22-0.54L547.13,1430.8z"/>
</g>
</svg>
