<?xml version="1.0" encoding="utf-8"?>
<!-- Generator: Adobe Illustrator 25.1.0, SVG Export Plug-In . SVG Version: 6.00 Build 0)  -->
<svg version="1.1" id="Layer_1" xmlns="http://www.w3.org/2000/svg" xmlns:xlink="http://www.w3.org/1999/xlink" x="0px" y="0px"
	 viewBox="0 0 300 300" style="enable-background:new 0 0 300 300;" xml:space="preserve">
<style type="text/css">
	.st0{fill:#1C3459;}
</style>
<path id="house-chimney-solid" class="st0" d="M281.35,166.25c9.06-0.07,16.39-7.41,16.43-16.48c0.35-4.8-1.78-9.45-5.64-12.33
	l-27.06-23.88V51.43c0.01-9.07-7.34-16.42-16.41-16.43c-0.01,0-0.02,0-0.02,0h-16.43c-9.07-0.01-16.42,7.34-16.43,16.41
	c0,0.01,0,0.02,0,0.02v18.84L161.1,22.12c-3.09-2.38-6.89-3.63-10.79-3.55c-4.18-0.29-8.28,1.2-11.3,4.1L7.32,137.44
	c-3.35,3.21-5.21,7.67-5.13,12.31c-0.12,8.98,7.07,16.36,16.05,16.48c0.13,0,0.25,0,0.38,0h16.43v35.78c-0.03,0.48-0.03,0.96,0,1.44
	v57.45c-0.01,11.33,9.16,20.52,20.49,20.55h8.16c0.62,0,1.18,0,1.85-0.11c0.66-0.11,1.54,0.11,2.37,0.11h28.76
	c11.34,0,20.54-9.19,20.54-20.54v-45.19c-0.01-9.07,7.34-16.42,16.41-16.43c0.01,0,0.02,0,0.02,0h32.86
	c9.07-0.01,16.42,7.34,16.43,16.41c0,0.01,0,0.02,0,0.02v45.19c0,11.34,9.19,20.54,20.54,20.54h29c0.72,0,1.44,0,2.15,0
	c0.71,0,1.18,0,1.69,0h8.22c11.34,0,20.54-9.19,20.54-20.54l0,0v-8.28c0.17-1.38,0.25-2.77,0.26-4.16l-0.35-82.26h16.38V166.25z"/>
</svg>
