<?xml version="1.0" encoding="utf-8"?>
<!-- Generator: Adobe Illustrator 25.1.0, SVG Export Plug-In . SVG Version: 6.00 Build 0)  -->
<svg version="1.1" id="Layer_1" xmlns="http://www.w3.org/2000/svg" xmlns:xlink="http://www.w3.org/1999/xlink" x="0px" y="0px"
	 viewBox="0 0 100 100" style="enable-background:new 0 0 100 100;" xml:space="preserve">
<style type="text/css">
	.st0{fill:#1C3459;}
</style>
<g id="Group_5813" transform="translate(-136.426 -6.855)">
	<g id="Component_12_1" transform="translate(136.426 6.855)">
		<g id="Q" transform="translate(0 0)">
			<g id="Group_5811">
				<path id="Path_11830" class="st0" d="M45.96,89.31c-12.13,0-21.89-4.01-29.27-12.04C9.38,69.24,5.73,58.8,5.73,45.96
					c0-13.85,3.73-24.86,11.19-33.04C24.43,4.69,34.59,0.58,47.4,0.58c11.81,0,21.35,3.99,28.61,11.97
					c7.26,7.98,10.9,18.42,10.89,31.31c0,14.01-3.71,25.08-11.14,33.22c-1.68,1.89-3.57,3.57-5.63,5.03l24.12,17.3H76.01
					L59.85,87.32C55.34,88.68,50.66,89.35,45.96,89.31z M46.68,9.69c-8.43-0.26-16.52,3.33-21.97,9.76
					c-5.63,6.51-8.44,15.05-8.44,25.62c0,10.54,2.73,19.06,8.2,25.56c5.31,6.34,13.23,9.89,21.49,9.64c9.42,0,16.84-3.07,22.27-9.22
					c5.42-6.15,8.14-14.75,8.14-25.8c0-11.37-2.63-20.13-7.9-26.28C63.2,12.78,55.94,9.69,46.68,9.69L46.68,9.69z"/>
			</g>
		</g>
	</g>
</g>
</svg>
