<?xml version="1.0" encoding="utf-8"?>
<!-- Generator: Adobe Illustrator 25.1.0, SVG Export Plug-In . SVG Version: 6.00 Build 0)  -->
<svg version="1.1" id="Layer_1" xmlns="http://www.w3.org/2000/svg" xmlns:xlink="http://www.w3.org/1999/xlink" x="0px" y="0px"
	 viewBox="0 0 144.99 30.4" style="enable-background:new 0 0 144.99 30.4;" xml:space="preserve">
<style type="text/css">
	.st0{fill:#1C3459;}
</style>
<g id="Group_5661">
	<path id="Path_3645" class="st0" d="M17.47,24.99c-2.92,0.12-5.74-1.04-7.73-3.18c-1.99-2.28-3.03-5.24-2.89-8.27
		c-0.17-3.18,0.89-6.3,2.96-8.73c2.08-2.21,5.02-3.4,8.05-3.26c2.86-0.11,5.63,1.05,7.56,3.16c1.98,2.29,3.01,5.25,2.88,8.27
		c0,3.7-0.98,6.62-2.94,8.77c-0.44,0.5-0.94,0.94-1.49,1.33l6.37,4.57H25.4l-4.27-3.19C19.94,24.83,18.71,25,17.47,24.99z
		 M17.66,3.96c-2.22-0.07-4.36,0.88-5.8,2.58c-1.55,1.9-2.34,4.31-2.23,6.77c-0.11,2.44,0.65,4.83,2.17,6.75
		c1.4,1.67,3.49,2.61,5.67,2.54c2.23,0.11,4.38-0.78,5.88-2.43c1.53-1.93,2.3-4.35,2.15-6.81c0-3-0.7-5.32-2.09-6.94
		C21.97,4.76,19.85,3.86,17.66,3.96L17.66,3.96z"/>
	<path id="Path_3646" class="st0" d="M45.48,24.61h-2.59v-2.56h-0.06c-0.94,1.88-2.9,3.03-5,2.94c-3.86,0-5.79-2.3-5.79-6.89V8.42
		h2.58v9.26c0,3.42,1.31,5.12,3.92,5.12c1.2,0.03,2.35-0.49,3.12-1.4c0.85-1.03,1.29-2.33,1.23-3.66V8.42h2.59L45.48,24.61z"/>
	<path id="Path_3647" class="st0" d="M62.3,24.61h-2.59v-2.53h-0.06c-0.96,1.84-2.9,2.97-4.98,2.91c-1.38,0.08-2.74-0.38-3.79-1.28
		c-0.92-0.88-1.42-2.12-1.37-3.4c0-3.02,1.78-4.78,5.34-5.28l4.85-0.68c0-2.75-1.11-4.13-3.34-4.13c-1.94,0-3.82,0.71-5.28,1.99
		V9.56c1.65-1.03,3.56-1.56,5.5-1.52c3.8,0,5.71,2.01,5.71,6.04L62.3,24.61z M59.71,16.42l-3.9,0.54c-0.96,0.09-1.89,0.39-2.72,0.89
		c-0.67,0.55-1.01,1.41-0.92,2.27c-0.02,0.74,0.29,1.45,0.85,1.94c0.63,0.52,1.43,0.79,2.25,0.75c1.21,0.03,2.37-0.46,3.19-1.35
		c0.85-0.93,1.3-2.16,1.26-3.42L59.71,16.42z"/>
	<path id="Path_3648" class="st0" d="M80.62,24.61h-2.59v-9.23c0-3.44-1.25-5.15-3.76-5.15c-1.24-0.03-2.42,0.51-3.22,1.46
		c-0.87,1.03-1.32,2.35-1.27,3.69v9.23h-2.59V8.42h2.59v2.69h0.06c1.05-1.94,3.1-3.13,5.31-3.07c1.55-0.1,3.05,0.54,4.06,1.71
		c1.03,1.44,1.53,3.19,1.41,4.96L80.62,24.61z"/>
	<path id="Path_3649" class="st0" d="M93.02,24.45c-0.75,0.37-1.58,0.54-2.42,0.51c-2.84,0-4.25-1.58-4.25-4.74v-9.58h-2.78V8.42
		h2.78V4.46l2.59-0.84v4.79h4.08v2.21h-4.08v9.12c-0.07,0.81,0.12,1.63,0.55,2.32c0.47,0.51,1.15,0.77,1.83,0.7
		c0.61,0.01,1.2-0.17,1.69-0.54L93.02,24.45z"/>
	<path id="Path_3650" class="st0" d="M109.57,24.61h-2.59v-2.56h-0.06c-0.94,1.88-2.9,3.03-5,2.94c-3.86,0-5.79-2.3-5.79-6.89V8.42
		h2.58v9.26c0,3.42,1.31,5.12,3.92,5.12c1.2,0.03,2.35-0.49,3.12-1.4c0.85-1.03,1.29-2.33,1.23-3.66V8.42h2.59L109.57,24.61z"/>
	<path id="Path_3651" class="st0" d="M137.79,24.61h-2.59v-9.3c0.1-1.35-0.18-2.7-0.83-3.89c-0.66-0.85-1.72-1.31-2.79-1.2
		c-1.13,0.01-2.19,0.58-2.82,1.52c-0.79,1.05-1.2,2.33-1.16,3.64v9.23h-2.6v-9.61c0-3.18-1.23-4.77-3.68-4.77
		c-1.12-0.01-2.17,0.52-2.81,1.43c-0.78,1.08-1.17,2.39-1.11,3.72v9.23h-2.59V8.41h2.59v2.56h0.06c0.98-1.86,2.93-3,5.03-2.94
		c1.04-0.02,2.06,0.3,2.89,0.93c0.81,0.6,1.41,1.46,1.69,2.43c0.96-2.09,3.08-3.4,5.37-3.35c3.56,0,5.34,2.2,5.34,6.59L137.79,24.61
		z"/>
</g>
</svg>
