<?xml version="1.0" encoding="utf-8"?>
<!-- Generator: Adobe Illustrator 25.1.0, SVG Export Plug-In . SVG Version: 6.00 Build 0)  -->
<svg version="1.1" id="Layer_1" xmlns="http://www.w3.org/2000/svg" xmlns:xlink="http://www.w3.org/1999/xlink" x="0px" y="0px"
	 viewBox="0 0 300 300" style="enable-background:new 0 0 300 300;" xml:space="preserve">
<style type="text/css">
	.st0{fill:#1C3459;}
</style>
<g id="Group_5664" transform="translate(1618.865 -867.032)">
	<path id="Path_3645" class="st0" d="M-1501.38,1072.15v-12.3c-0.15-8.51,0.96-17,3.31-25.19c2.35-7.4,6.13-14.27,11.13-20.21
		c6.3-7.34,13.37-13.98,21.08-19.81c9.11-7.15,16.37-13.34,21.77-18.55c4.85-4.46,8.82-9.79,11.71-15.72
		c2.52-5.82,3.75-12.11,3.61-18.44c0.59-9.75-3.6-19.18-11.23-25.28c-9.26-6.31-20.35-9.37-31.53-8.68
		c-11.45-0.08-22.85,1.63-33.77,5.07c-10.71,3.45-21.15,7.69-31.24,12.69l-16.2-34.36c12.23-6.66,25.16-11.93,38.56-15.72
		c14.91-4.09,30.32-6.07,45.78-5.9c22.22-1.42,44.17,5.47,61.59,19.33c14.51,12.87,22.5,31.57,21.77,50.95
		c0.26,10.2-1.6,20.34-5.47,29.78c-3.86,8.57-9.33,16.33-16.11,22.84c-8.1,7.84-16.68,15.17-25.67,21.97
		c-6.7,5.15-13.01,10.79-18.87,16.89c-3.96,4.11-7.02,8.99-8.97,14.35c-1.75,5.62-2.57,11.49-2.44,17.38v8.99L-1501.38,1072.15z
		 M-1508.8,1135.01c-0.91-8.39,2.14-16.72,8.25-22.55c5.84-4.47,13.05-6.78,20.4-6.54c7.26-0.18,14.36,2.13,20.12,6.54
		c6.18,5.78,9.29,14.13,8.4,22.55c0.79,8.4-2.3,16.71-8.4,22.55c-5.66,4.65-12.8,7.11-20.12,6.93c-7.41,0.23-14.66-2.24-20.4-6.93
		c-6.02-5.88-9.05-14.16-8.25-22.54V1135.01z"/>
</g>
</svg>
