<?xml version="1.0" encoding="utf-8"?>
<!-- Generator: Adobe Illustrator 25.1.0, SVG Export Plug-In . SVG Version: 6.00 Build 0)  -->
<svg version="1.1" id="Layer_1" xmlns="http://www.w3.org/2000/svg" xmlns:xlink="http://www.w3.org/1999/xlink" x="0px" y="0px"
	 viewBox="0 0 100 100" style="enable-background:new 0 0 100 100;" xml:space="preserve">
<style type="text/css">
	.st0{fill:#1C3459;}
</style>
<g id="Group_5577" transform="translate(-6076.906 -1885.037)">
	<path id="Path_2306" class="st0" d="M6170.6,1889.54h-87.39c-0.76,0-1.38,0.62-1.38,1.38v54.67c0,0.76,0.62,1.38,1.38,1.38h31.07
		c0.76,0,1.38-0.62,1.38-1.38c0-0.76-0.62-1.38-1.38-1.38h-29.69v-51.91h84.63v51.91h-5.29c-0.76,0-1.38,0.62-1.38,1.38
		c0,0.76,0.62,1.38,1.38,1.38h6.66c0.76,0,1.38-0.61,1.38-1.38c0,0,0,0,0,0v-54.67C6171.98,1890.16,6171.36,1889.54,6170.6,1889.54z
		"/>
	<path id="Path_2307" class="st0" d="M6156.03,1937.76h-6.31l0.33-2.88c0.09-0.76-0.45-1.44-1.21-1.53
		c-0.05-0.01-0.11-0.01-0.16-0.01h-2.5v-4.42c0.01-0.76-0.59-1.39-1.35-1.4c-0.76-0.01-1.39,0.59-1.4,1.36c0,0.01,0,0.03,0,0.04
		v4.42h-8.7v-4.42c-0.01-0.76-0.64-1.37-1.4-1.36c-0.74,0.01-1.34,0.61-1.36,1.36v4.42h-2.49c-0.76,0-1.38,0.62-1.38,1.38
		c0,0.05,0,0.1,0.01,0.16l0.33,2.88h-6.31c-0.76,0-1.38,0.62-1.38,1.38c0,0.06,0,0.12,0.01,0.18l5.33,40.02
		c0.09,0.69,0.68,1.2,1.37,1.2h23.23c0.69,0,1.28-0.51,1.37-1.2l5.33-40.02c0.1-0.75-0.43-1.45-1.18-1.55
		c-0.06-0.01-0.12-0.01-0.19-0.01H6156.03z M6149.5,1977.77h-20.82l-4.96-37.26h5.06l2.94,25c0.08,0.69,0.67,1.22,1.37,1.22h0.16
		c0.76-0.09,1.3-0.77,1.21-1.53l-3.42-29.09h16.12l-3.42,29.09c-0.09,0.76,0.45,1.44,1.21,1.53c0.76,0.09,1.44-0.45,1.53-1.21
		l2.94-25h5.06L6149.5,1977.77z"/>
	<path id="Path_2308" class="st0" d="M6145.65,1913.11c0-3.62-2.93-6.55-6.55-6.55c-3.61,0-6.55,2.93-6.55,6.55
		c0,3.62,2.93,6.55,6.55,6.55C6142.71,1919.66,6145.65,1916.73,6145.65,1913.11z M6135.31,1913.11c0-2.09,1.7-3.79,3.79-3.79
		c2.09,0,3.79,1.7,3.79,3.79c0,2.09-1.7,3.79-3.79,3.79l0,0C6137.01,1916.9,6135.31,1915.2,6135.31,1913.11z"/>
	<path id="Path_2309" class="st0" d="M6164.83,1928.03c-0.71-2.07-2.97-3.18-5.05-2.46c-0.02,0.01-0.03,0.01-0.05,0.02l-7,2.52
		l-3.7-4.01c-1.77-1.91-4.26-3-6.87-3.01h-5.77c-2.61,0-5.1,1.09-6.87,3.01l-3.7,4.01l-7-2.52c-2.06-0.75-4.34,0.3-5.09,2.36
		c-0.75,2.06,0.3,4.34,2.36,5.09l8,2.99c0.71,0.28,1.51-0.08,1.78-0.78c0.28-0.71-0.08-1.51-0.79-1.78c-0.01,0-0.02-0.01-0.04-0.01
		l-8-2.99c-0.63-0.23-0.95-0.93-0.72-1.56c0.23-0.63,0.93-0.95,1.56-0.72l0,0l7.86,2.83c0.52,0.19,1.1,0.05,1.48-0.36l4.32-4.68
		c1.25-1.35,3-2.12,4.84-2.12h5.77c1.84,0,3.59,0.77,4.84,2.12l4.32,4.68c0.37,0.41,0.96,0.55,1.48,0.36l7.86-2.83
		c0.63-0.23,1.33,0.09,1.56,0.72c0.23,0.63-0.09,1.33-0.72,1.56l0,0l-8,2.99c-0.72,0.26-1.09,1.05-0.83,1.76
		c0.26,0.72,1.04,1.09,1.76,0.83c0.01,0,0.02-0.01,0.04-0.01l8-2.99C6164.49,1932.3,6165.54,1930.07,6164.83,1928.03z"/>
	<path id="Path_2310" class="st0" d="M6125.4,1901.44c0-0.76-0.62-1.38-1.38-1.38h-15.64c-0.76,0-1.38,0.62-1.38,1.38
		c0,0.76,0.62,1.38,1.38,1.38h15.64C6124.78,1902.82,6125.4,1902.2,6125.4,1901.44L6125.4,1901.44z"/>
	<path id="Path_2311" class="st0" d="M6092.86,1902.82h10.59c0.76,0,1.38-0.62,1.38-1.38c0-0.76-0.62-1.38-1.38-1.38l0,0h-10.59
		c-0.76,0-1.38,0.62-1.38,1.38C6091.48,1902.2,6092.1,1902.82,6092.86,1902.82z"/>
	<path id="Path_2312" class="st0" d="M6113.61,1908.12c-0.76,0-1.38,0.62-1.38,1.38c0,0.76,0.62,1.38,1.38,1.38h1.53
		c0.76,0,1.38-0.62,1.38-1.38c0-0.76-0.62-1.38-1.38-1.38H6113.61z"/>
	<path id="Path_2313" class="st0" d="M6092.86,1910.87h16.05c0.76,0,1.38-0.62,1.38-1.38c0-0.76-0.62-1.38-1.38-1.38h-16.05
		c-0.76,0-1.38,0.62-1.38,1.38C6091.48,1910.26,6092.1,1910.87,6092.86,1910.87z"/>
	<path id="Path_2314" class="st0" d="M6122.03,1917.55c0-0.76-0.62-1.38-1.38-1.38h-19.32c-0.76,0-1.38,0.62-1.38,1.38
		c0,0.76,0.62,1.38,1.38,1.38h19.32C6121.42,1918.92,6122.03,1918.31,6122.03,1917.55L6122.03,1917.55z"/>
	<path id="Path_2315" class="st0" d="M6092.86,1918.92h3.93c0.76,0,1.38-0.62,1.38-1.38c0-0.76-0.62-1.38-1.38-1.38h-3.93
		c-0.76,0-1.38,0.62-1.38,1.38C6091.48,1918.31,6092.1,1918.92,6092.86,1918.92z"/>
	<path id="Path_2316" class="st0" d="M6109.87,1925.59c0-0.76-0.62-1.38-1.38-1.38h-15.63c-0.76,0-1.38,0.62-1.38,1.38
		c0,0.76,0.62,1.38,1.38,1.38h15.63C6109.25,1926.97,6109.87,1926.35,6109.87,1925.59L6109.87,1925.59z"/>
	<path id="Path_2317" class="st0" d="M6092.86,1932.27c-0.76,0-1.38,0.62-1.38,1.38c0,0.76,0.62,1.38,1.38,1.38h7.02
		c0.76,0,1.38-0.62,1.38-1.38c0-0.76-0.62-1.38-1.38-1.38l0,0H6092.86z"/>
</g>
</svg>
