<?xml version="1.0" encoding="utf-8"?>
<!-- Generator: Adobe Illustrator 25.1.0, SVG Export Plug-In . SVG Version: 6.00 Build 0)  -->
<svg version="1.1" id="Layer_1" xmlns="http://www.w3.org/2000/svg" xmlns:xlink="http://www.w3.org/1999/xlink" x="0px" y="0px"
	 viewBox="0 0 100 100" style="enable-background:new 0 0 100 100;" xml:space="preserve">
<style type="text/css">
	.st0{fill:#1C3459;}
</style>
<g id="Group_5578" transform="translate(-770.924 -1277.141)">
	<path id="Path_2318" class="st0" d="M806.4,1332.36c-0.06-0.03-0.13-0.06-0.2-0.08l-13.52-4.16c-0.8-0.24-1.64,0.2-1.89,1
		c-0.25,0.8,0.2,1.64,1,1.89l13.41,4.13c1.84,0.91,2.83,2.95,2.41,4.96l-3.63,17.56c-0.17,0.8-0.87,1.37-1.69,1.37
		c-0.95,0-1.72-0.77-1.72-1.72c0-0.09,0.01-0.18,0.02-0.27l2.36-14.97c0.33-2.08-1.09-4.03-3.17-4.36
		c-0.06-0.01-0.13-0.02-0.19-0.03l-10.02-1.07c-3.89-0.42-6.71-3.91-6.3-7.81c0.02-0.15,0.04-0.3,0.06-0.44l2.28-13.27
		c0.56-3.23,1.97-6.26,4.09-8.77c3.43,2.91,8.58,2.48,11.48-0.95c2.91-3.43,2.48-8.58-0.95-11.48c-3.43-2.91-8.58-2.48-11.48,0.95
		c-2.16,2.55-2.54,6.15-0.97,9.09c-0.01,0.01-0.03,0.03-0.04,0.04c-2.65,2.99-4.41,6.67-5.09,10.61l-2.28,13.27
		c-0.94,5.5,2.75,10.73,8.26,11.67c0.21,0.04,0.42,0.07,0.63,0.09l10.02,1.07c0.44,0.05,0.75,0.44,0.71,0.87
		c0,0.01,0,0.03-0.01,0.04l-2.36,14.97c-0.09,0.56-0.07,1.13,0.04,1.69l-7.97-1.47v-12.1c0.14,0,0.26,0,0.41,0h6.07
		c0.83-0.04,1.48-0.74,1.44-1.57c-0.03-0.78-0.66-1.41-1.44-1.44h-6.07c-7.16-0.01-12.96-5.81-12.97-12.97v-22.28
		c-0.03-0.83-0.74-1.48-1.57-1.45c-0.78,0.03-1.41,0.66-1.45,1.45v22.28c0.01,7.5,5.23,13.99,12.56,15.61v12.5l-10.76,2.56
		c-0.82,0.16-1.35,0.95-1.2,1.77s0.95,1.35,1.77,1.2c0.04-0.01,0.08-0.02,0.13-0.03l11.53-2.74l13.78,2.54
		c0.09,0.02,0.18,0.03,0.26,0.03c0.19,0,0.39-0.04,0.56-0.11c2.06-0.21,3.75-1.73,4.17-3.75l3.63-17.56
		C811.27,1337.29,809.55,1333.84,806.4,1332.36z M794.98,1294.97c2.84,0,5.14,2.3,5.14,5.14c0,2.84-2.3,5.14-5.14,5.14
		s-5.14-2.3-5.14-5.14l0,0C789.84,1297.27,792.14,1294.97,794.98,1294.97z"/>
	<path id="Path_2319" class="st0" d="M827.91,1359.08h-5.83v-30.38h19.51c0.83,0,1.51-0.67,1.51-1.5c0-0.52-0.27-1.01-0.71-1.28
		h0.49c3.21,0,6.07-2.03,7.13-5.07l1.85-5.35c0.27-0.79-0.14-1.65-0.93-1.92c-0.79-0.27-1.65,0.14-1.92,0.93l-1.86,5.35
		c-0.64,1.82-2.35,3.04-4.28,3.04h-12.31c-0.4,0.01-0.73-0.31-0.74-0.7c-0.01-0.37,0.27-0.69,0.63-0.73l10.82-1.57
		c2.03-0.29,3.61-1.93,3.81-3.98l0.48-4.82c0.08-0.83-0.52-1.57-1.35-1.65c-0.83-0.08-1.57,0.52-1.65,1.35l-0.48,4.82
		c-0.06,0.66-0.57,1.2-1.24,1.29l-10.82,1.57c-2.04,0.29-3.46,2.18-3.17,4.23c0.19,1.36,1.12,2.51,2.42,2.98h-16.71
		c1.94-0.71,2.94-2.85,2.23-4.79c-0.47-1.29-1.62-2.22-2.98-2.42l-10.82-1.57c-0.66-0.1-1.17-0.63-1.24-1.29l-0.48-4.82
		c-0.04-0.83-0.75-1.47-1.58-1.43c-0.83,0.04-1.47,0.75-1.43,1.58c0,0.05,0.01,0.1,0.01,0.15l0.48,4.82
		c0.2,2.04,1.77,3.69,3.81,3.98l10.82,1.57c0.4,0.05,0.68,0.41,0.63,0.8c-0.04,0.37-0.36,0.64-0.73,0.63h-12.31
		c-1.93,0-3.64-1.22-4.28-3.04l-1.86-5.35c-0.31-0.77-1.19-1.15-1.97-0.83c-0.72,0.29-1.1,1.08-0.88,1.83l1.86,5.35
		c0.99,2.83,3.56,4.81,6.55,5.04c-0.72,0.42-0.96,1.34-0.55,2.06c0.27,0.46,0.76,0.75,1.3,0.75h19.92v30.38h-5.63
		c-0.83,0-1.51,0.68-1.51,1.51c0,0.83,0.68,1.51,1.51,1.51h14.48c0.83,0,1.51-0.68,1.51-1.51c0-0.83-0.68-1.51-1.51-1.51
		L827.91,1359.08z"/>
	<path id="Path_2320" class="st0" d="M867.74,1328.7v-22.28c0-0.83-0.68-1.51-1.51-1.51c-0.83,0-1.51,0.68-1.51,1.51v22.28
		c-0.01,7.16-5.81,12.96-12.97,12.97h-6.07c-0.83,0.04-1.48,0.74-1.44,1.57c0.03,0.78,0.66,1.41,1.44,1.44h6.07c0.17,0,0.34,0,0.5,0
		v12.09l-8.06,1.49c0.11-0.56,0.13-1.13,0.04-1.69l-2.36-14.97c-0.07-0.43,0.22-0.84,0.66-0.91c0.01,0,0.03,0,0.04-0.01l10.02-1.07
		c5.55-0.59,9.57-5.58,8.97-11.13c-0.02-0.21-0.05-0.42-0.09-0.63l-2.28-13.27c-0.68-3.94-2.44-7.61-5.09-10.61
		c-0.01-0.02-0.03-0.03-0.04-0.04c2.13-3.99,0.62-8.95-3.37-11.07c-3.99-2.13-8.95-0.62-11.07,3.37c-2.13,3.99-0.62,8.95,3.37,11.07
		c2.96,1.58,6.59,1.19,9.15-0.98c2.12,2.51,3.53,5.53,4.09,8.77l2.28,13.27c0.66,3.86-1.93,7.53-5.79,8.19
		c-0.15,0.03-0.3,0.05-0.44,0.06l-10.02,1.07c-2.09,0.23-3.61,2.1-3.38,4.2c0.01,0.06,0.01,0.12,0.02,0.18l2.36,14.97
		c0.15,0.94-0.49,1.82-1.43,1.97c-0.09,0.01-0.18,0.02-0.27,0.02c-0.82,0-1.52-0.57-1.69-1.37l-3.63-17.56
		c-0.42-2.01,0.57-4.04,2.41-4.96l13.41-4.13c0.8-0.24,1.24-1.09,1-1.89c-0.24-0.8-1.09-1.24-1.89-1l0,0l-13.52,4.16
		c-0.07,0.02-0.14,0.05-0.2,0.08c-3.15,1.48-4.88,4.93-4.16,8.34l3.63,17.56c0.42,2.03,2.11,3.55,4.17,3.75
		c0.18,0.07,0.37,0.11,0.57,0.11c0.09,0,0.18-0.01,0.26-0.03l13.83-2.55l11.57,2.75c0.8,0.23,1.64-0.24,1.86-1.04
		c0.23-0.8-0.24-1.64-1.04-1.86c-0.04-0.01-0.08-0.02-0.13-0.03l-10.76-2.56v-12.52C862.55,1342.65,867.73,1336.18,867.74,1328.7z
		 M846.86,1305.25c-2.84,0-5.14-2.3-5.14-5.14c0-2.84,2.3-5.14,5.14-5.14s5.14,2.3,5.14,5.14l0,0
		C852,1302.95,849.7,1305.25,846.86,1305.25L846.86,1305.25z"/>
</g>
</svg>
