<?xml version="1.0" encoding="utf-8"?>
<!-- Generator: Adobe Illustrator 25.1.0, SVG Export Plug-In . SVG Version: 6.00 Build 0)  -->
<svg version="1.1" id="Layer_1" xmlns="http://www.w3.org/2000/svg" xmlns:xlink="http://www.w3.org/1999/xlink" x="0px" y="0px"
	 viewBox="0 0 100 100" style="enable-background:new 0 0 100 100;" xml:space="preserve">
<style type="text/css">
	.st0{fill:#FFFFFF;stroke:#1C3459;}
</style>
<g id="Group_5571" transform="translate(-130.5 -1121.223)">
	<path id="Path_2000" class="st0" d="M180.5,1127.73h19.03c1.5,0.01,2.71,1.22,2.72,2.72v8.16c-0.01,1.5-1.22,2.71-2.72,2.72h-13.59
		v2.63l15.33,10.96h17.29c6.01,0,10.87,4.87,10.88,10.88v38.06c-0.01,6-4.87,10.87-10.87,10.87h-29.91v-19.03
		c0-4.5-3.65-8.16-8.16-8.16s-8.16,3.65-8.16,8.16v19.03h-29.91c-6-0.01-10.87-4.87-10.87-10.87v-38.06
		c0.01-6,4.87-10.87,10.87-10.87h17.29l15.33-10.96v-10.79c0-3,2.43-5.43,5.43-5.44C180.49,1127.73,180.5,1127.73,180.5,1127.73z
		 M188.66,1168.51c0-4.5-3.65-8.16-8.16-8.16s-8.16,3.65-8.16,8.16s3.65,8.16,8.16,8.16S188.66,1173.01,188.66,1168.51z
		 M145.16,1165.79c-1.5,0.01-2.71,1.22-2.72,2.72v10.87c0.01,1.5,1.22,2.71,2.72,2.72h5.44c1.5-0.01,2.71-1.22,2.72-2.72v-10.87
		c-0.01-1.5-1.22-2.71-2.72-2.72H145.16z M207.69,1168.51v10.87c0.01,1.5,1.22,2.71,2.72,2.72h5.44c1.5-0.01,2.71-1.22,2.72-2.72
		v-10.87c-0.01-1.5-1.22-2.71-2.72-2.72h-5.44C208.91,1165.79,207.69,1167.01,207.69,1168.51L207.69,1168.51z M145.16,1187.53
		c-1.5,0.01-2.71,1.22-2.72,2.72v10.88c0.01,1.5,1.22,2.71,2.72,2.72h5.44c1.5-0.01,2.71-1.22,2.72-2.72v-10.87
		c-0.01-1.5-1.22-2.71-2.72-2.72L145.16,1187.53z M210.41,1187.53c-1.5,0.01-2.71,1.22-2.72,2.72v10.88
		c0.01,1.5,1.22,2.71,2.72,2.72h5.44c1.5-0.01,2.71-1.22,2.72-2.72v-10.87c-0.01-1.5-1.22-2.71-2.72-2.72L210.41,1187.53z"/>
</g>
</svg>
