<?xml version="1.0" encoding="utf-8"?>
<!-- Generator: Adobe Illustrator 25.1.0, SVG Export Plug-In . SVG Version: 6.00 Build 0)  -->
<svg version="1.1" id="Layer_1" xmlns="http://www.w3.org/2000/svg" xmlns:xlink="http://www.w3.org/1999/xlink" x="0px" y="0px"
	 viewBox="0 0 100 100" style="enable-background:new 0 0 100 100;" xml:space="preserve">
<style type="text/css">
	.st0{fill:none;stroke:#1C3459;}
</style>
<path id="users-solid" class="st0" d="M23.18,35.37c-6.73,0-12.19-5.46-12.19-12.19s5.46-12.19,12.19-12.19s12.19,5.46,12.19,12.19
	C35.37,29.91,29.91,35.37,23.18,35.37C23.18,35.37,23.18,35.37,23.18,35.37z M79.26,35.37c-6.73,0-12.19-5.46-12.19-12.19
	s5.46-12.19,12.19-12.19s12.19,5.46,12.19,12.19C91.46,29.91,86,35.37,79.26,35.37C79.27,35.37,79.27,35.37,79.26,35.37z M1.23,56.5
	c0-8.98,7.28-16.26,16.26-16.26h6.5c2.35,0,4.66,0.5,6.8,1.48c-0.2,1.12-0.3,2.26-0.3,3.4c0,5.6,2.4,10.93,6.6,14.63H4.48
	C2.68,59.75,1.23,58.3,1.23,56.5z M63.01,59.75H62.9c4.21-3.7,6.62-9.03,6.61-14.63c0-1.14-0.1-2.27-0.29-3.4
	c2.13-0.98,4.45-1.49,6.79-1.48h6.5c8.98,0,16.26,7.28,16.26,16.26c0,1.8-1.46,3.25-3.25,3.25H63.01z M64.63,45.12
	c0,8.08-6.55,14.63-14.63,14.63S35.37,53.2,35.37,45.12S41.92,30.49,50,30.49S64.63,37.04,64.63,45.12z M20.74,84.95
	c0-11.22,9.1-20.31,20.32-20.32h17.88c11.22,0,20.32,9.09,20.33,20.32c0,2.25-1.82,4.07-4.06,4.07c0,0,0,0-0.01,0H24.81
	C22.56,89.02,20.74,87.2,20.74,84.95C20.74,84.95,20.74,84.95,20.74,84.95z"/>
</svg>
