<?xml version="1.0" encoding="utf-8"?>
<!-- Generator: Adobe Illustrator 25.1.0, SVG Export Plug-In . SVG Version: 6.00 Build 0)  -->
<svg version="1.1" id="Layer_1" xmlns="http://www.w3.org/2000/svg" xmlns:xlink="http://www.w3.org/1999/xlink" x="0px" y="0px"
	 viewBox="0 0 300 300" style="enable-background:new 0 0 300 300;" xml:space="preserve">
<style type="text/css">
	.st0{fill:#1C3459;}
</style>
<path id="square-twitter" class="st0" d="M262.94,6.25H37.06c-17.01,0-30.81,13.79-30.81,30.81c0,0,0,0,0,0v225.89
	c0,17.01,13.79,30.81,30.81,30.81c0,0,0,0,0,0h225.89c17.01,0,30.81-13.79,30.81-30.81l0,0V37.06
	C293.75,20.04,279.96,6.25,262.94,6.25C262.94,6.25,262.94,6.25,262.94,6.25z M231.56,108.15c0.13,1.8,0.13,3.65,0.13,5.45
	c0.45,65.69-52.44,119.3-118.13,119.74c-0.54,0-1.08,0-1.62,0c-22.93,0.07-45.39-6.48-64.69-18.86c3.37,0.37,6.75,0.54,10.13,0.52
	c18.98,0.07,37.42-6.26,52.35-17.97c-18.02-0.31-33.85-12.04-39.39-29.2c6.31,1.08,12.79,0.82,18.99-0.78
	c-19.64-4-33.73-21.29-33.69-41.33v-0.52c5.82,3.26,12.33,5.09,18.99,5.33c-11.7-7.81-18.72-20.96-18.69-35.03
	c-0.03-7.47,1.96-14.81,5.75-21.25c21.37,26.32,52.91,42.32,86.77,44.03c-5.33-22.68,8.74-45.38,31.42-50.7
	c14.71-3.45,30.14,1.22,40.46,12.26c9.42-1.8,18.45-5.23,26.69-10.13c-3.14,9.72-9.71,17.95-18.49,23.17
	c8.37-0.95,16.54-3.15,24.25-6.54C247.04,94.8,239.85,102.17,231.56,108.15z"/>
</svg>
