<?xml version="1.0" encoding="utf-8"?>
<!-- Generator: Adobe Illustrator 25.1.0, SVG Export Plug-In . SVG Version: 6.00 Build 0)  -->
<svg version="1.1" id="Layer_1" xmlns="http://www.w3.org/2000/svg" xmlns:xlink="http://www.w3.org/1999/xlink" x="0px" y="0px"
	 viewBox="0 0 144.99 30.4" style="enable-background:new 0 0 144.99 30.4;" xml:space="preserve">
<style type="text/css">
	.st0{fill:#1D3259;}
	.st1{fill:#B2B1B1;}
</style>
<g id="Group_5599" transform="translate(-1006.764 -1297.829)">
	<g id="Group_5597" transform="translate(1006.764 1297.829)">
		<path id="Path_2372" class="st0" d="M20.67,2.95c-0.31,0.12-0.64,0.24-0.64,0.95v7.53c0,5.37-4.51,6.65-7.48,6.65
			c-3.25,0-7.69-0.38-7.69-6.01V4.26c0.02-0.51-0.25-0.98-0.69-1.23l-1.26-0.5c0-0.48,0.03-0.97,0.09-1.45h8.24
			c0.06,0.52,0.08,1.04,0.05,1.57L9.7,2.93C9.34,2.94,9.06,3.24,9.08,3.6c0,0.03,0,0.06,0.01,0.09v7.74c0,3.7,2.54,4.27,4.42,4.27
			c1.73,0,3.56-0.81,3.56-4.84V4.45c0.02-0.79-0.55-1.48-1.33-1.61l-1.02-0.31c-0.03-0.48-0.02-0.97,0.02-1.45h7.03
			c0.08,0.5,0.11,1,0.09,1.5L20.67,2.95z"/>
		<path id="Path_2373" class="st0" d="M40.9,2.93c-0.58,0.34-0.95,0.96-0.97,1.64v13.06l-3.11,0.95L27.7,6.23h-0.17l0.1,1.9v3.25
			l0.07,3.58c0,0.57,0.05,0.76,0.57,0.9l2.02,0.57c0.01,0.48-0.03,0.95-0.12,1.42h-7.15c-0.08-0.46-0.11-0.93-0.09-1.4l1.14-0.31
			c0.74-0.19,1.12-1.35,1.14-2.11l0.05-2.66v-7.1c0-0.5-0.26-0.95-0.69-1.21l-1.45-0.74c-0.02-0.42,0-0.84,0.05-1.26h5.51
			l8.85,11.68h0.17l-0.14-2.49V4.59c-0.02-0.62-0.35-1.19-0.88-1.52l-1.5-0.74c-0.01-0.42,0.02-0.84,0.09-1.26h6.69
			c0.06,0.4,0.09,0.81,0.1,1.21L40.9,2.93z"/>
		<path id="Path_2374" class="st0" d="M51.25,17.86h-7.93c-0.09-0.48-0.12-0.96-0.07-1.45l0.85-0.24c0.62-0.16,1.07-0.69,1.14-1.33
			l0.07-3.66V4.28c0-0.78-0.76-1.19-1.21-1.38l-0.85-0.38c-0.05-0.48-0.02-0.97,0.07-1.45h8.02c0.05,0.54,0.03,1.08-0.07,1.61
			l-1.04,0.26c-0.55,0.17-0.91,0.71-0.85,1.28v6.96l0.05,4.01c0.02,0.45,0.12,0.57,0.55,0.71l1.45,0.33
			C51.44,16.79,51.38,17.34,51.25,17.86z"/>
		<path id="Path_2375" class="st0" d="M70.92,18.43c-2.2,0.35-4.44-0.26-6.15-1.69c-1.59-1.57-2.83-3.47-3.63-5.56l-0.5,0.02h-1.88
			l0.07,3.75c0,0.47,0.09,0.71,0.5,0.83l1.47,0.5c0.01,0.52-0.02,1.05-0.1,1.57h-8.07c-0.06-0.49-0.08-0.98-0.07-1.47l1.14-0.26
			c0.58-0.25,0.95-0.84,0.93-1.47l0.07-3.28V4.12c0.01-0.4-0.21-0.77-0.57-0.95l-1.54-0.62c-0.03-0.49,0.01-0.99,0.12-1.47h9.31
			c3.35,0,6.41,1.31,6.41,4.82c-0.08,1.91-1.2,3.61-2.92,4.44c0.61,1.32,1.35,2.58,2.21,3.75c0.78,1.19,1.96,2.07,3.32,2.47
			L70.92,18.43z M63.94,6.3c0-2.16-1.5-3.13-4.15-3.13h-1.05v6.1l1.73-0.02c2.52-0.02,3.44-0.88,3.44-2.94L63.94,6.3z"/>
		<path id="Path_2376" class="st0" d="M88.3,17.86h-7.5c-0.18-0.49-0.25-1.02-0.21-1.54l1.26-0.45c0.47-0.11,0.8-0.54,0.78-1.02
			c-0.01-0.3-0.07-0.6-0.19-0.88l-0.81-2.47h-5.29l-0.85,2.26c-0.1,0.29-0.16,0.59-0.17,0.9c-0.04,0.55,0.33,1.05,0.88,1.16
			l1.71,0.5c0.02,0.52-0.03,1.04-0.14,1.54h-6.48c-0.1-0.47-0.14-0.95-0.12-1.42c0.49-0.39,0.88-0.88,1.14-1.45l5.84-13.51
			l3.73-0.78l5.53,14.34c0.27,0.54,0.63,1.02,1.07,1.43C88.49,16.94,88.43,17.41,88.3,17.86z M79.83,5.99l-0.57-2.04h-0.14
			l-0.67,1.97L77.1,9.53h3.89L79.83,5.99z"/>
		<path id="Path_2377" class="st0" d="M107.77,2.93c-0.58,0.34-0.95,0.96-0.97,1.64v13.06l-3.11,0.95L94.57,6.23H94.4l0.09,1.9v3.25
			l0.07,3.58c0,0.57,0.05,0.76,0.57,0.9l2.02,0.57c0.01,0.48-0.03,0.95-0.12,1.42h-7.15c-0.08-0.46-0.11-0.93-0.1-1.4l1.14-0.31
			c0.74-0.19,1.12-1.35,1.14-2.11l0.05-2.66v-7.1c0-0.5-0.26-0.95-0.69-1.21l-1.45-0.74c-0.02-0.42,0-0.84,0.05-1.26h5.51
			l8.85,11.68h0.17l-0.14-2.49V4.59c-0.02-0.62-0.35-1.19-0.88-1.52l-1.5-0.74c-0.01-0.42,0.02-0.84,0.1-1.26h6.69
			c0.05,0.4,0.09,0.81,0.09,1.21L107.77,2.93z"/>
		<path id="Path_2378" class="st0" d="M127.35,18.15c-1.05,0-4.25-0.19-6.05-2.23l-5.06-5.72v1l0.05,4.01
			c0.02,0.45,0.09,0.62,0.55,0.71l1.45,0.33c0.02,0.54-0.03,1.09-0.17,1.61h-7.93c-0.07-0.48-0.1-0.96-0.07-1.45l0.85-0.24
			c0.62-0.16,1.07-0.69,1.14-1.33l0.07-3.66V4.29c0-0.78-0.76-1.19-1.21-1.38l-0.85-0.38c-0.03-0.48,0.01-0.97,0.09-1.45h8
			c0.05,0.54,0.03,1.08-0.07,1.61l-1.05,0.26c-0.55,0.17-0.91,0.71-0.85,1.28v4.94l4.7-4.49c0.22-0.19,0.35-0.47,0.36-0.76
			c0.03-0.39-0.15-0.78-0.47-1l-0.67-0.36c-0.03-0.5,0.01-1.01,0.12-1.5h6.72v1.16l-7.31,6.36l3.44,3.51
			c1.4,1.52,2.95,2.91,4.63,4.13L127.35,18.15z"/>
		<path id="Path_2379" class="st0" d="M134.73,18.13c-2.14,0.05-4.25-0.44-6.15-1.43l0.45-4.3h1.71c0.19,2.33,2.14,3.56,4.34,3.56
			c0.93,0,2.78-0.36,2.78-1.59c0-0.95-1.4-1.57-3.09-2.33c-2.44-1.09-5.46-2.44-5.46-5.56c0-3.06,3.32-5.58,6.24-5.58
			c1.97-0.01,3.92,0.4,5.72,1.21V5.8h-1.54c-0.47-1.9-2.3-2.64-4.11-2.64c-1.28,0-2.54,0.4-2.54,1.9c0,1.02,1.78,1.69,3.75,2.54
			c2.47,1.07,5.22,2.4,5.22,5.1C142.07,16.58,138.03,18.13,134.73,18.13z"/>
	</g>
	<g id="Group_5598" transform="translate(1006.764 1322.353)">
		<path id="Path_2380" class="st1" d="M2.91,0.77h0.82l1.03,3.21l1.06-3.22h0.64l1.06,3.22l1.03-3.21h0.8L7.86,5.13H7.2L6.14,2.02
			L5.08,5.13H4.42L2.91,0.77z"/>
		<path id="Path_2381" class="st1" d="M9.72,2.95V2.94c0.02-1.25,1.06-2.24,2.3-2.22c1.21,0.02,2.19,1,2.22,2.21v0.01
			c-0.02,1.25-1.05,2.24-2.3,2.22C10.73,5.14,9.75,4.16,9.72,2.95L9.72,2.95z M13.45,2.95V2.94c0.03-0.82-0.61-1.51-1.42-1.54
			c-0.02,0-0.03,0-0.05,0c-0.81,0-1.46,0.66-1.46,1.46c0,0.02,0,0.04,0,0.06v0.01c-0.03,0.82,0.61,1.51,1.43,1.54
			c0.02,0,0.03,0,0.05,0c0.81,0,1.46-0.66,1.46-1.46C13.45,2.99,13.45,2.97,13.45,2.95z"/>
		<path id="Path_2382" class="st1" d="M15.16,0.77h1.93c0.46-0.03,0.9,0.13,1.25,0.43c0.24,0.25,0.37,0.59,0.36,0.93v0.01
			c0.02,0.63-0.42,1.18-1.03,1.31l1.17,1.64h-0.9l-1.06-1.51h-0.95V5.1h-0.76L15.16,0.77z M17.04,2.92c0.54,0,0.89-0.28,0.89-0.72
			V2.18c0-0.46-0.33-0.72-0.9-0.72h-1.11v1.45L17.04,2.92z"/>
		<path id="Path_2383" class="st1" d="M19.63,0.77h0.76v3.64h2.28V5.1h-3.04V0.77z"/>
		<path id="Path_2384" class="st1" d="M23.46,0.77h1.61c1.19-0.08,2.22,0.82,2.3,2.01c0,0.05,0,0.09,0,0.14v0.01
			c0,1.2-0.97,2.17-2.17,2.17c-0.04,0-0.09,0-0.13,0h-1.61V0.77z M25.07,4.41c0.78,0.05,1.45-0.54,1.5-1.32c0-0.05,0-0.1,0-0.14
			V2.94c0.03-0.78-0.58-1.44-1.37-1.47c-0.04,0-0.09,0-0.13,0h-0.85v2.94L25.07,4.41z"/>
		<path id="Path_2385" class="st1" d="M27.97,2.2c0.38-0.07,0.56-0.26,0.53-0.58h-0.31V0.77h0.82V1.5c0.07,0.49-0.27,0.95-0.76,1.02
			c-0.06,0.01-0.13,0.01-0.19,0.01L27.97,2.2z"/>
		<path id="Path_2386" class="st1" d="M29.66,4.47l0.46-0.54c0.37,0.36,0.86,0.56,1.37,0.56c0.47,0,0.77-0.22,0.77-0.54V3.93
			c0-0.31-0.17-0.48-0.98-0.66c-0.92-0.22-1.44-0.49-1.44-1.29V1.97c0.03-0.73,0.65-1.3,1.38-1.26c0.03,0,0.06,0,0.09,0.01
			c0.57-0.01,1.13,0.18,1.57,0.54l-0.41,0.57c-0.33-0.27-0.75-0.43-1.18-0.44c-0.44,0-0.7,0.23-0.7,0.51v0.01
			c0,0.33,0.2,0.48,1.03,0.68c0.92,0.22,1.39,0.55,1.39,1.27v0.01c0,0.81-0.64,1.29-1.55,1.29C30.8,5.17,30.16,4.92,29.66,4.47z"/>
		<path id="Path_2387" class="st1" d="M35.76,0.77h0.76v3.64h2.28V5.1h-3.04L35.76,0.77z"/>
		<path id="Path_2388" class="st1" d="M41.12,0.74h0.7l1.9,4.36h-0.8l-0.44-1.05h-2.05L39.99,5.1h-0.78L41.12,0.74z M42.21,3.38
			l-0.75-1.73l-0.74,1.73H42.21z"/>
		<path id="Path_2389" class="st1" d="M44.46,0.77h1.93c0.46-0.03,0.91,0.13,1.25,0.43c0.24,0.25,0.37,0.59,0.36,0.93v0.01
			c0.02,0.63-0.42,1.18-1.03,1.31l1.17,1.64h-0.9l-1.06-1.51h-0.95V5.1h-0.76L44.46,0.77z M46.34,2.92c0.54,0,0.89-0.28,0.89-0.72
			V2.18c0-0.46-0.33-0.72-0.9-0.72h-1.11v1.45L46.34,2.92z"/>
		<path id="Path_2390" class="st1" d="M48.75,2.95V2.94c-0.02-1.22,0.95-2.22,2.17-2.24c0.02,0,0.04,0,0.06,0
			c0.61-0.03,1.21,0.18,1.66,0.59l-0.48,0.57c-0.33-0.31-0.76-0.48-1.21-0.46c-0.81,0.03-1.43,0.72-1.4,1.53c0,0,0,0,0,0v0.01
			c-0.06,0.8,0.55,1.49,1.34,1.54c0.04,0,0.09,0,0.13,0c0.37,0,0.74-0.11,1.05-0.33V3.34h-1.11V2.68h1.84V4.5
			c-0.5,0.43-1.14,0.67-1.81,0.67c-1.18,0.06-2.19-0.86-2.25-2.04C48.74,3.07,48.74,3.01,48.75,2.95z"/>
		<path id="Path_2391" class="st1" d="M53.78,0.77h3.21v0.68h-2.45v1.12h2.17v0.68h-2.17v1.16h2.48V5.1h-3.24V0.77z"/>
		<path id="Path_2392" class="st1" d="M57.63,4.47l0.46-0.54c0.37,0.36,0.86,0.56,1.37,0.56c0.47,0,0.77-0.22,0.77-0.54V3.93
			c0-0.31-0.17-0.48-0.98-0.66c-0.92-0.22-1.44-0.49-1.44-1.29V1.97c0.03-0.73,0.65-1.3,1.38-1.26c0.03,0,0.06,0,0.1,0.01
			c0.57-0.01,1.13,0.18,1.57,0.54l-0.41,0.57c-0.33-0.27-0.75-0.43-1.18-0.44c-0.44,0-0.7,0.23-0.7,0.51v0.01
			c0,0.33,0.2,0.48,1.03,0.68c0.92,0.22,1.39,0.55,1.39,1.27v0.01c0,0.81-0.64,1.29-1.55,1.29C58.77,5.17,58.13,4.92,57.63,4.47z"/>
		<path id="Path_2393" class="st1" d="M62.85,1.48h-1.37v-0.7h3.51v0.7h-1.37V5.1h-0.77L62.85,1.48z"/>
		<path id="Path_2394" class="st1" d="M67.58,3.27V0.77h0.76v2.46c0,0.8,0.41,1.24,1.09,1.24s1.09-0.41,1.09-1.2V0.77h0.76v2.45
			c0.12,0.95-0.55,1.81-1.49,1.93c-0.12,0.02-0.24,0.02-0.37,0.01c-0.94,0.08-1.77-0.61-1.85-1.55C67.56,3.5,67.56,3.38,67.58,3.27z
			"/>
		<path id="Path_2395" class="st1" d="M72.32,0.77h0.7l2.32,2.99V0.77h0.75V5.1h-0.64l-2.39-3.08V5.1h-0.75V0.77z"/>
		<path id="Path_2396" class="st1" d="M77.25,0.77h0.76V5.1h-0.76V0.77z"/>
		<path id="Path_2397" class="st1" d="M78.79,0.77h0.84l1.3,3.33l1.3-3.33h0.82l-1.8,4.36h-0.67L78.79,0.77z"/>
		<path id="Path_2398" class="st1" d="M83.8,0.77h3.21v0.68h-2.45v1.12h2.17v0.68h-2.17v1.16h2.48V5.1H83.8L83.8,0.77z"/>
		<path id="Path_2399" class="st1" d="M87.94,0.77h1.93c0.46-0.03,0.9,0.13,1.25,0.43c0.24,0.25,0.37,0.59,0.36,0.93v0.01
			c0.02,0.63-0.42,1.18-1.03,1.31l1.17,1.64h-0.9l-1.06-1.51H88.7V5.1h-0.76L87.94,0.77z M89.81,2.92c0.54,0,0.89-0.28,0.89-0.72
			V2.18c0-0.46-0.33-0.72-0.9-0.72H88.7v1.45L89.81,2.92z"/>
		<path id="Path_2400" class="st1" d="M92.12,4.47l0.46-0.54c0.37,0.36,0.86,0.56,1.37,0.56c0.47,0,0.77-0.22,0.77-0.54V3.93
			c0-0.31-0.17-0.48-0.98-0.66c-0.92-0.22-1.44-0.49-1.44-1.29V1.97c0.03-0.73,0.65-1.3,1.38-1.26c0.03,0,0.06,0,0.1,0.01
			c0.57-0.01,1.13,0.18,1.57,0.54l-0.41,0.57c-0.33-0.27-0.75-0.43-1.18-0.44c-0.44,0-0.7,0.23-0.7,0.51v0.01
			c0,0.33,0.2,0.48,1.03,0.68c0.91,0.22,1.39,0.55,1.39,1.27v0.01c0,0.81-0.64,1.29-1.55,1.29C93.26,5.17,92.61,4.92,92.12,4.47z"/>
		<path id="Path_2401" class="st1" d="M96.41,0.77h0.76V5.1h-0.76V0.77z"/>
		<path id="Path_2402" class="st1" d="M99.39,1.48h-1.37v-0.7h3.51v0.7h-1.37V5.1h-0.77L99.39,1.48z"/>
		<path id="Path_2403" class="st1" d="M103.6,3.4l-1.72-2.62h0.9L104,2.69l1.22-1.92h0.87l-1.72,2.6V5.1h-0.77L103.6,3.4z"/>
		<path id="Path_2404" class="st1" d="M108.61,0.77h1.93c0.46-0.03,0.91,0.13,1.25,0.43c0.24,0.25,0.37,0.59,0.36,0.93v0.01
			c0.02,0.63-0.42,1.18-1.03,1.31l1.17,1.64h-0.9l-1.06-1.51h-0.95V5.1h-0.76L108.61,0.77z M110.48,2.92c0.54,0,0.89-0.28,0.89-0.72
			V2.18c0-0.46-0.33-0.72-0.9-0.72h-1.11v1.45L110.48,2.92z"/>
		<path id="Path_2405" class="st1" d="M114.61,0.74h0.7l1.9,4.36h-0.8l-0.44-1.05h-2.05l-0.44,1.05h-0.78L114.61,0.74z M115.7,3.38
			l-0.75-1.73l-0.74,1.73H115.7z"/>
		<path id="Path_2406" class="st1" d="M117.96,0.77h0.7l2.32,2.99V0.77h0.75V5.1h-0.64l-2.39-3.08V5.1h-0.75L117.96,0.77z"/>
		<path id="Path_2407" class="st1" d="M122.84,0.77h0.76v2.18l2.06-2.18h0.93l-1.8,1.86l1.88,2.47h-0.92l-1.48-1.95l-0.67,0.69V5.1
			h-0.76L122.84,0.77z"/>
		<path id="Path_2408" class="st1" d="M127.37,0.77h0.76V5.1h-0.76V0.77z"/>
		<path id="Path_2409" class="st1" d="M129.28,0.77h0.7l2.32,2.99V0.77h0.75V5.1h-0.64l-2.39-3.08V5.1h-0.75L129.28,0.77z"/>
		<path id="Path_2410" class="st1" d="M133.97,2.95V2.94c-0.02-1.21,0.95-2.22,2.16-2.24c0.02,0,0.05,0,0.07,0
			c0.61-0.03,1.21,0.18,1.66,0.59l-0.48,0.57c-0.33-0.31-0.76-0.48-1.21-0.46c-0.81,0.03-1.43,0.72-1.4,1.53c0,0,0,0,0,0v0.01
			c-0.06,0.8,0.55,1.49,1.34,1.54c0.04,0,0.09,0,0.13,0c0.37,0,0.74-0.11,1.05-0.33V3.34h-1.11V2.68h1.84V4.5
			c-0.5,0.43-1.14,0.67-1.81,0.67c-1.18,0.06-2.19-0.86-2.25-2.04C133.97,3.07,133.97,3.01,133.97,2.95z"/>
		<path id="Path_2411" class="st1" d="M138.72,4.47l0.46-0.54c0.37,0.36,0.86,0.56,1.37,0.56c0.47,0,0.77-0.22,0.77-0.54V3.93
			c0-0.31-0.17-0.48-0.98-0.66c-0.92-0.22-1.44-0.49-1.44-1.29V1.97c0.03-0.73,0.65-1.3,1.38-1.26c0.03,0,0.06,0,0.1,0.01
			c0.57-0.01,1.13,0.18,1.57,0.54l-0.41,0.57c-0.33-0.27-0.75-0.43-1.18-0.44c-0.44,0-0.7,0.23-0.7,0.51v0.01
			c0,0.33,0.2,0.48,1.03,0.68c0.92,0.22,1.39,0.55,1.39,1.27v0.01c0,0.81-0.64,1.29-1.55,1.29C139.86,5.17,139.21,4.92,138.72,4.47z
			"/>
	</g>
	<rect id="Rectangle_1389" x="1009.68" y="1319.96" class="st1" width="139.16" height="0.68"/>
</g>
</svg>
