<?xml version="1.0" encoding="utf-8"?>
<!-- Generator: Adobe Illustrator 25.1.0, SVG Export Plug-In . SVG Version: 6.00 Build 0)  -->
<svg version="1.1" id="Layer_1" xmlns="http://www.w3.org/2000/svg" xmlns:xlink="http://www.w3.org/1999/xlink" x="0px" y="0px"
	 viewBox="0 0 100 100" style="enable-background:new 0 0 100 100;" xml:space="preserve">
<style type="text/css">
	.st0{fill:none;stroke:#1C3459;}
</style>
<path id="building-columns-solid" class="st0" d="M47.94,8.62L11.37,24.29c-2.66,1.13-3.89,4.2-2.76,6.86
	c0.82,1.93,2.72,3.18,4.82,3.18v1.3c-0.02,2.16,1.72,3.91,3.87,3.93c0.01,0,0.03,0,0.04,0h65.32c2.16,0.01,3.91-1.73,3.92-3.89
	c0-0.01,0-0.03,0-0.04v-1.31c2.89,0,5.23-2.33,5.23-5.22c0-2.1-1.25-3.99-3.18-4.82L52.06,8.62C50.74,8.06,49.26,8.06,47.94,8.62z
	 M29.1,44.77H18.65v32.05c-0.1,0.05-0.2,0.11-0.29,0.18l-7.84,5.23c-2.4,1.6-3.05,4.84-1.46,7.24c0.97,1.46,2.61,2.34,4.37,2.33
	h73.16c2.88,0,5.22-2.34,5.22-5.22c0-1.75-0.87-3.38-2.33-4.35L81.63,77c-0.1-0.06-0.2-0.11-0.29-0.18V44.77H70.9v31.35h-6.53V44.77
	H53.92v31.35h-7.84V44.77H35.63v31.35H29.1V44.77z M50,29.09c-2.89,0.01-5.23-2.33-5.24-5.21c-0.01-2.89,2.33-5.23,5.21-5.24
	c2.89-0.01,5.23,2.33,5.24,5.21c0,0,0,0.01,0,0.01C55.22,26.75,52.89,29.09,50,29.09C50,29.09,50,29.09,50,29.09L50,29.09z"/>
</svg>
