<?xml version="1.0" encoding="utf-8"?>
<!-- Generator: Adobe Illustrator 25.1.0, SVG Export Plug-In . SVG Version: 6.00 Build 0)  -->
<svg version="1.1" id="Layer_1" xmlns="http://www.w3.org/2000/svg" xmlns:xlink="http://www.w3.org/1999/xlink" x="0px" y="0px"
	 viewBox="0 0 100 100" style="enable-background:new 0 0 100 100;" xml:space="preserve">
<style type="text/css">
	.st0{fill:#1D3259;}
	.st1{fill:#B2B1B1;}
</style>
<g id="Group_5607" transform="translate(-72 -1199)">
	<g id="Group_5580" transform="translate(83.039 1208.578)">
		<g id="Group_5579" transform="translate(2.599 16.241)">
			<path id="Path_2321" class="st0" d="M33.91,12.79c-0.51,0.2-1.07,0.4-1.07,1.58v12.55c0,8.94-7.52,11.08-12.47,11.08
				c-5.42,0-12.82-0.63-12.82-10.01V14.97c0.03-0.85-0.41-1.64-1.15-2.06l-2.1-0.83c0-0.81,0.05-1.61,0.16-2.41h13.73
				c0.1,0.87,0.13,1.74,0.08,2.61l-2.65,0.47c-0.6,0.02-1.07,0.52-1.04,1.12c0,0.05,0.01,0.1,0.02,0.15v12.9
				c0,6.17,4.23,7.12,7.36,7.12c2.89,0,5.94-1.35,5.94-8.07V15.29c0.03-1.32-0.91-2.47-2.22-2.69l-1.7-0.51
				c-0.05-0.8-0.03-1.61,0.04-2.41h11.71c0.13,0.82,0.18,1.66,0.16,2.49L33.91,12.79z"/>
			<path id="Path_2322" class="st0" d="M68.22,38.6c-3.66,0.59-7.4-0.44-10.25-2.81c-2.34-1.94-4.39-5.5-6.06-9.26l-0.83,0.04h-3.13
				l0.12,6.25c0,0.79,0.16,1.19,0.83,1.39l2.45,0.83c0.02,0.87-0.03,1.75-0.16,2.61H37.74c-0.1-0.81-0.14-1.63-0.12-2.45l1.9-0.44
				c0.97-0.42,1.59-1.39,1.54-2.45l0.12-5.46V14.73c0.02-0.67-0.35-1.29-0.95-1.58l-2.57-1.03c-0.04-0.82,0.02-1.65,0.2-2.45h15.51
				c5.58,0,10.69,2.18,10.69,8.03c-0.13,3.18-2,6.03-4.87,7.4c1.01,2.2,2.24,4.3,3.68,6.25c1.3,1.99,3.26,3.45,5.54,4.12L68.22,38.6
				z M56.59,18.37c0-3.6-2.49-5.22-6.93-5.22h-1.74v10.17l2.89-0.04c4.2-0.04,5.74-1.46,5.74-4.91H56.59z"/>
		</g>
		<path id="Path_2323" class="st0" d="M38.99,5.02h-0.05C19.38,5.04,3.54,20.9,3.56,40.45C3.57,60,19.43,75.84,38.99,75.82
			c19.55-0.01,35.39-15.88,35.38-35.43C74.35,20.86,58.52,5.04,38.99,5.02z M60.11,14.51c-2.33,0.64-4.7,1.15-7.09,1.52
			c-1.55-3.17-3.76-5.97-6.49-8.21C51.51,8.98,56.15,11.27,60.11,14.51L60.11,14.51z M39.93,7.01c4.17,0.45,8.08,3.82,11.06,9.31
			c-3.67,0.48-7.36,0.73-11.06,0.76V7.01z M31.39,7.82c-2.73,2.24-4.94,5.04-6.49,8.21c-2.39-0.37-4.76-0.88-7.09-1.53
			C21.76,11.27,26.41,8.98,31.39,7.82L31.39,7.82z M37.99,7.01v10.07c-3.7-0.03-7.39-0.28-11.06-0.76
			C29.91,10.83,33.83,7.46,37.99,7.01L37.99,7.01z M17.81,66.34c2.33-0.64,4.7-1.15,7.09-1.52c1.55,3.17,3.76,5.97,6.49,8.21
			C26.41,71.86,21.77,69.58,17.81,66.34L17.81,66.34z M37.99,73.83c-4.16-0.46-8.08-3.82-11.06-9.31c3.67-0.48,7.36-0.73,11.06-0.76
			V73.83z M46.53,73.02c2.73-2.24,4.94-5.04,6.49-8.21c2.39,0.37,4.76,0.88,7.09,1.52C56.16,69.58,51.51,71.86,46.53,73.02
			L46.53,73.02z M39.93,73.83V63.76c3.7,0.03,7.39,0.28,11.06,0.76C48.01,70.01,44.09,73.38,39.93,73.83L39.93,73.83z M61.83,64.83
			c-2.6-0.78-5.26-1.39-7.94-1.83c0.82-1.84,1.52-3.73,2.09-5.66h-2.02c-0.56,1.83-1.24,3.61-2.05,5.35
			c-3.97-0.55-7.98-0.84-11.99-0.87v-4.47H38v4.48c-4.01,0.03-8.01,0.32-11.99,0.87c-0.8-1.73-1.49-3.52-2.05-5.35h-2.02
			c0.57,1.93,1.26,3.82,2.09,5.66c-2.68,0.44-5.34,1.05-7.94,1.83C2.61,52.23,1.9,31.09,14.5,17.61c0.51-0.55,1.04-1.08,1.59-1.59
			c2.6,0.78,5.26,1.39,7.94,1.82c-0.83,1.84-1.52,3.73-2.09,5.66h2.02c0.56-1.83,1.24-3.61,2.05-5.35C29.98,18.71,33.99,19,38,19.03
			v4.48h1.93v-4.48c4.01-0.03,8.01-0.33,11.99-0.87c0.8,1.73,1.49,3.52,2.05,5.35h2.02c-0.57-1.93-1.27-3.82-2.09-5.66
			c2.68-0.44,5.34-1.05,7.94-1.82c13.48,12.6,14.19,33.74,1.59,47.22C62.91,63.79,62.38,64.32,61.83,64.83L61.83,64.83z"/>
	</g>
	<g id="Group_5581" transform="translate(72 1232.018)">
		<path id="Path_2324" class="st0" d="M10.57,15.42l-3.18,2.27l1.24,3.71l-3.14-2.33L2.34,21.4l1.24-3.71L0.4,15.42l3.91,0.03
			l1.18-3.73l1.18,3.73L10.57,15.42z"/>
	</g>
	<g id="Group_5582" transform="translate(78.696 1253.277)">
		<path id="Path_2325" class="st1" d="M12.49,21.5l-3.18,2.27l1.24,3.71L7.4,25.16l-3.14,2.33l1.24-3.71L2.32,21.5l3.91,0.03
			l1.18-3.73l1.18,3.73L12.49,21.5z"/>
	</g>
	<g id="Group_5583" transform="translate(95.778 1199)">
		<path id="Path_2326" class="st0" d="M15.43,11.95l-3.14-2.33l-3.14,2.33l1.24-3.71L7.2,5.98l3.91,0.03l1.18-3.73l1.18,3.73
			l3.91-0.03l-3.18,2.27L15.43,11.95z"/>
	</g>
	<g id="Group_5584" transform="translate(134.527 1211.41)">
		<path id="Path_2327" class="st0" d="M20.23,15.5l1.24-3.71l-3.18-2.27l3.91,0.03l1.18-3.73l1.18,3.73l3.91-0.03l-3.18,2.27
			l1.24,3.71l-3.14-2.33L20.23,15.5z"/>
	</g>
	<g id="Group_5585" transform="translate(134.699 1252.1)">
		<path id="Path_2328" class="st0" d="M18.34,21.17l3.91,0.03l1.18-3.73l1.18,3.73l3.91-0.03l-3.18,2.27l1.24,3.71l-3.14-2.33
			l-3.14,2.33l1.24-3.71L18.34,21.17z"/>
	</g>
	<g id="Group_5586" transform="translate(96.055 1264.836)">
		<path id="Path_2329" class="st0" d="M12.37,21.11l1.18,3.73l3.91-0.03l-3.18,2.27l1.24,3.71l-3.14-2.33l-3.14,2.33l1.24-3.71
			l-3.18-2.27l3.91,0.03L12.37,21.11z"/>
	</g>
	<g id="Group_5587" transform="translate(117.446 1265.688)">
		<path id="Path_2330" class="st1" d="M18.49,21.36l1.18,3.73l3.91-0.03l-3.18,2.27l1.24,3.71l-3.14-2.33l-3.14,2.33l1.24-3.71
			l-3.18-2.27l3.91,0.03L18.49,21.36z"/>
	</g>
	<g id="Group_5588" transform="translate(141.224 1232.67)">
		<path id="Path_2331" class="st1" d="M25.29,11.91l1.18,3.73l3.91-0.03l-3.18,2.27l1.24,3.71l-3.14-2.33l-3.14,2.33l1.24-3.71
			l-3.18-2.27l3.91,0.03L25.29,11.91z"/>
	</g>
	<g id="Group_5589" transform="translate(117.169 1199.854)">
		<path id="Path_2332" class="st1" d="M18.41,2.53l1.18,3.73l3.91-0.03L20.31,8.5l1.24,3.71l-3.14-2.33l-3.14,2.33L16.5,8.5
			l-3.18-2.27l3.91,0.03L18.41,2.53z"/>
	</g>
	<g id="Group_5590" transform="translate(78.525 1212.59)">
		<path id="Path_2333" class="st1" d="M7.35,6.17L8.53,9.9l3.91-0.03l-3.18,2.27l1.24,3.71l-3.14-2.33l-3.14,2.33l1.24-3.71
			L2.27,9.86L6.18,9.9L7.35,6.17z"/>
	</g>
</g>
</svg>
