<?xml version="1.0" encoding="utf-8"?>
<!-- Generator: Adobe Illustrator 25.1.0, SVG Export Plug-In . SVG Version: 6.00 Build 0)  -->
<svg version="1.1" id="Layer_1" xmlns="http://www.w3.org/2000/svg" xmlns:xlink="http://www.w3.org/1999/xlink" x="0px" y="0px"
	 viewBox="0 0 144.99 30.4" style="enable-background:new 0 0 144.99 30.4;" xml:space="preserve">
<style type="text/css">
	.st0{fill:#1C3459;}
</style>
<g id="Group_5608" transform="translate(-5049.534 424.669)">
	<path id="Path_3311" class="st0" d="M5081.06-421.71h9.53v2.85l-0.97,0.28c-0.67,0.16-1.27,0.53-1.71,1.06
		c-0.54,0.7-0.95,1.49-1.21,2.33l-6.53,18.2h-4.71l-5.08-14.78l-6.07,14.78h-5l-5.46-17.94c-0.22-0.86-0.56-1.68-1-2.45
		c-0.36-0.49-0.85-0.86-1.41-1.09l-0.92-0.39v-2.85h12.04l0.04,2.82l-1.25,0.31c-0.53,0.12-0.82,0.38-0.87,0.76
		c0.01,0.79,0.14,1.58,0.4,2.33l2.85,10.8l5.17-11.41c-0.2-0.56-0.48-1.1-0.84-1.57c-0.32-0.36-0.72-0.63-1.17-0.8l-0.9-0.39v-2.85
		h11.87l0.04,2.82l-1.23,0.31c-0.25,0.05-0.48,0.15-0.7,0.29c-0.18,0.13-0.32,0.3-0.41,0.51c-0.11,0.29-0.14,0.6-0.08,0.9
		c0.07,0.48,0.2,0.95,0.37,1.4l3.79,10.86l2.91-10.03c0.33-0.84,0.52-1.73,0.58-2.63c0.02-0.55-0.34-1.04-0.88-1.18l-1.14-0.39
		L5081.06-421.71z"/>
	<path id="Path_3312" class="st0" d="M5116.02-403.05c-0.05,0.68,0.05,1.35,0.29,1.99c0.24,0.4,0.64,0.68,1.1,0.75l0.86,0.22
		l-0.04,2.87h-11.34v-2.87l0.75-0.22c0.51-0.09,0.96-0.37,1.28-0.78c0.25-0.62,0.36-1.29,0.3-1.96v-5.06h-7.54v5.06
		c-0.05,0.67,0.06,1.35,0.31,1.97c0.26,0.41,0.68,0.69,1.16,0.77l0.86,0.22l-0.04,2.87h-11.34v-2.87l0.75-0.22
		c0.49-0.09,0.93-0.37,1.21-0.77c0.25-0.63,0.35-1.3,0.29-1.97v-12.83c0.05-0.67-0.05-1.34-0.29-1.97
		c-0.29-0.41-0.72-0.68-1.21-0.77l-0.75-0.24v-2.85H5104l0.04,2.85l-0.86,0.24c-0.48,0.09-0.9,0.37-1.16,0.77
		c-0.25,0.62-0.36,1.3-0.31,1.97v4.2h7.54v-4.2c0.05-0.67-0.05-1.34-0.3-1.96c-0.31-0.41-0.77-0.69-1.28-0.78l-0.75-0.24v-2.85
		h11.34l0.04,2.85l-0.86,0.24c-0.46,0.08-0.86,0.35-1.1,0.75c-0.24,0.63-0.34,1.31-0.29,1.99V-403.05z"/>
	<path id="Path_3313" class="st0" d="M5140.94-405.48h3.28l-0.75,8.26h-21.29v-2.87l0.75-0.22c0.49-0.09,0.93-0.37,1.21-0.77
		c0.25-0.63,0.35-1.3,0.29-1.97v-12.83c0.05-0.66-0.05-1.33-0.29-1.95c-0.26-0.4-0.67-0.69-1.14-0.79l-0.75-0.24v-2.85h19.96
		l1.14,6.11l-3.37,0.59c-0.55-1.09-1.29-2.08-2.16-2.93c-0.76-0.54-1.69-0.81-2.62-0.75h-4v7.05h1.07c0.67,0.02,1.35-0.05,2-0.21
		c0.35-0.08,0.67-0.27,0.89-0.55c0.19-0.34,0.32-0.71,0.39-1.09l3.27-0.18v7.51l-3.27,0.37c-0.11-0.56-0.3-1.09-0.59-1.58
		c-0.54-0.48-1.25-0.72-1.97-0.67c-0.21-0.01-0.45-0.02-0.72-0.02h-1.07v7.65h4.14c0.57,0.01,1.14-0.03,1.7-0.1
		c0.4-0.06,0.78-0.18,1.14-0.36c0.33-0.18,0.62-0.42,0.84-0.73c0.26-0.36,0.49-0.75,0.69-1.15c0.23-0.45,0.49-1.02,0.78-1.69
		C5140.68-404.89,5140.83-405.23,5140.94-405.48z"/>
	<path id="Path_3314" class="st0" d="M5170.57-401.35l1.09,1.8c-0.38,0.88-1.07,1.6-1.94,2.02c-0.8,0.43-1.68,0.67-2.59,0.69
		c-0.51,0.01-1.02-0.07-1.51-0.22c-0.49-0.18-0.95-0.46-1.33-0.82c-0.43-0.38-0.84-0.8-1.21-1.24c-0.36-0.43-0.84-1.06-1.45-1.9
		l-4.47-6.15h-0.31v4.12c-0.05,0.68,0.05,1.35,0.29,1.99c0.24,0.4,0.64,0.68,1.1,0.75l0.86,0.22l-0.04,2.87h-11.26v-2.87l0.75-0.22
		c0.49-0.1,0.92-0.38,1.21-0.79c0.25-0.62,0.35-1.29,0.29-1.95v-12.83c0.05-0.66-0.05-1.33-0.29-1.95c-0.26-0.4-0.67-0.69-1.14-0.79
		l-0.75-0.24v-2.85h10.79c2.69-0.15,5.36,0.5,7.68,1.86c1.78,1.1,2.84,3.06,2.79,5.14c0.02,1.4-0.44,2.76-1.31,3.86
		c-0.99,1.2-2.29,2.1-3.75,2.61l3.88,4.93c0.43,0.58,0.9,1.12,1.41,1.64c0.26,0.21,0.6,0.31,0.93,0.29L5170.57-401.35z
		 M5158.06-418.69h-1.21v8.46h1.9c2.16,0,3.24-1.38,3.24-4.14c0.1-1.18-0.24-2.35-0.97-3.28
		C5160.22-418.4,5159.15-418.78,5158.06-418.69L5158.06-418.69z"/>
	<path id="Path_3315" class="st0" d="M5184.22-396.84c-1.91,0-3.81-0.38-5.58-1.12l-0.11,0.64h-3.17l-0.75-7.27l3.16-0.13
		c0.36,0.49,0.62,0.86,0.79,1.09c0.17,0.24,0.42,0.55,0.73,0.92c0.24,0.3,0.5,0.57,0.79,0.82c0.22,0.17,0.49,0.37,0.82,0.61
		c0.3,0.22,0.63,0.38,0.98,0.5c0.37,0.11,0.75,0.19,1.13,0.26c0.46,0.08,0.93,0.11,1.4,0.11c0.7,0.06,1.4-0.16,1.93-0.62
		c0.46-0.55,0.69-1.26,0.63-1.98c0-0.49-0.14-0.96-0.42-1.36c-0.3-0.42-0.69-0.77-1.13-1.03c-0.53-0.31-1.07-0.58-1.64-0.81
		c-0.62-0.26-1.27-0.52-1.95-0.78c-0.68-0.26-1.36-0.55-2.04-0.86c-0.68-0.31-1.34-0.68-1.95-1.11c-0.6-0.42-1.15-0.91-1.64-1.47
		c-0.5-0.59-0.89-1.27-1.13-2.01c-0.29-0.85-0.44-1.75-0.42-2.65c-0.01-0.91,0.14-1.81,0.45-2.66c0.26-0.74,0.67-1.41,1.2-1.99
		c0.51-0.54,1.11-0.98,1.77-1.33c0.67-0.36,1.38-0.62,2.12-0.78c0.76-0.16,1.53-0.24,2.3-0.24c1.95-0.01,3.87,0.43,5.61,1.29
		l0.39-0.79h2.94l0.37,7.05l-2.87,0.11c-0.77-0.91-1.59-1.78-2.47-2.59c-1.07-0.94-2.44-1.46-3.86-1.47
		c-0.56-0.03-1.11,0.15-1.54,0.52c-0.4,0.4-0.6,0.95-0.56,1.51c0,0.41,0.16,0.8,0.45,1.09c0.34,0.35,0.75,0.63,1.2,0.83
		c0.5,0.23,1.08,0.45,1.73,0.67l2.06,0.7c0.72,0.25,1.45,0.52,2.17,0.81c0.73,0.3,1.42,0.67,2.06,1.11
		c0.63,0.43,1.21,0.94,1.73,1.51c0.53,0.61,0.94,1.32,1.2,2.08c0.31,0.89,0.46,1.83,0.45,2.77c0.02,1.24-0.23,2.47-0.75,3.6
		c-0.46,1-1.16,1.87-2.04,2.53c-0.9,0.65-1.9,1.14-2.96,1.44C5186.64-397.01,5185.43-396.84,5184.22-396.84z"/>
</g>
</svg>
