<?xml version="1.0" encoding="utf-8"?>
<!-- Generator: Adobe Illustrator 25.1.0, SVG Export Plug-In . SVG Version: 6.00 Build 0)  -->
<svg version="1.1" id="Layer_1" xmlns="http://www.w3.org/2000/svg" xmlns:xlink="http://www.w3.org/1999/xlink" x="0px" y="0px"
	 viewBox="0 0 448 512" style="enable-background:new 0 0 448 512;" xml:space="preserve">
<style type="text/css">
	.st0{fill:#FFFFFF;}
</style>
<path class="st0" d="M256,32v17.9c72.5,11.5,128,74.3,128,150.1v33.4c0,45.4,15.5,89.5,43.8,125l14.9,18.6
	c5.8,7.2,6.9,17.1,2.9,25.4c-4,8.3-12.4,13.6-21.6,13.6H24c-9.2,0-17.6-5.3-21.6-13.6c-4-8.3-2.9-18.2,2.9-25.4l14.9-18.6
	c28.4-35.5,43.8-79.6,43.8-125V200c0-75.8,55.5-138.6,128-150.1V32c0-17.7,14.3-32,32-32S256,14.3,256,32L256,32z M216,96
	c-57.4,0-104,46.6-104,104v33.4c0,47.9-13.9,94.6-39.7,134.6h303.4c-25.8-40-39.7-86.7-39.7-134.6V200c0-57.4-46.6-104-104-104H216z
	 M288,448c0,16.1-6.7,33.3-18.7,45.3S240.1,512,224,512c-17,0-33.3-6.7-45.3-18.7S160,464.1,160,448H288z"/>
</svg>
